<?xml version="1.0" standalone="no"?><!DOCTYPE svg PUBLIC "-//W3C//DTD SVG 1.1//EN" "http://www.w3.org/Graphics/SVG/1.1/DTD/svg11.dtd"><svg t="1748423036010" class="icon" viewBox="0 0 1024 1024" version="1.1" xmlns="http://www.w3.org/2000/svg" p-id="1217" xmlns:xlink="http://www.w3.org/1999/xlink" width="200" height="200"><path d="M49.8688 618.3936v-7.7824c-2.048 0-2.048 5.7344-4.5056 2.048 4.5056-23.6544-10.24-48.2304-14.7456-71.4752-4.5056-2.048 0 4.5056-4.5056 2.048 0-4.5056 5.7344-12.288 0-13.5168v10.24c-2.048 0-2.048 2.048-4.5056 2.048 0-4.5056-2.048-4.5056-4.5056-4.5056-2.048 4.5056-2.048 7.7824-5.7344 4.5056 4.5056 2.048 4.5056 4.5056 4.5056 10.24 2.048 2.048 5.7344 0 5.7344 2.048 0 4.5056-5.7344 0-4.5056 4.5056 7.7824 12.288 5.7344 33.4848 18.0224 41.2672-4.5056 5.7344 2.048 22.4256 5.7344 25.7024 0 2.048-2.048 2.048-2.048 4.5056 10.24 35.9424 20.0704 71.4752 30.3104 107.4176 2.048 2.048 5.7344 0 5.7344 2.048-2.048 2.048 0 4.5056-2.048 4.5056 0-1.2288 0-3.2768-2.048-3.2768 0 7.7824 0 13.5168 5.7344 15.5648-5.7344 4.5056 0 10.24 0 13.5168 45.1584-10.24 20.0704-2.048 64-12.288l18.0224-7.7824c10.24-4.5056 22.528-7.7824 34.816-10.24 0-4.5056-7.7824-4.5056-4.5056-7.7824 2.048 2.048 4.5056 4.5056 4.5056 5.7344 58.2656-10.24 111.104-27.7504 167.3216-41.2672 2.048-2.048 0-4.5056 2.048-4.5056 7.7824 4.5056 15.5648-2.048 24.576-2.048 2.048-2.048 0-4.5056 2.048-4.5056 12.288 4.5056 40.5504-10.24 62.7712-12.288 2.048-2.048-4.5056-4.5056 0-4.5056-2.048 4.5056 4.5056 2.048 5.7344 2.048 2.048-2.048 2.048-7.7824 5.7344-12.288 2.048 0 2.048 7.7824 0 7.7824 12.288 2.048 15.5648-4.5056 25.8048-4.5056 2.048-4.5056-5.7344 0-4.5056-4.5056-4.5056-2.048 0 4.5056-4.5056 2.048-2.048-4.5056 4.5056 0 2.048-4.5056-5.7344 2.048-10.24 5.7344-14.7456 10.24 2.048-7.7824 2.048-7.7824 2.048-12.288 2.048 2.048 5.7344 2.048 7.7824 4.5056 0-5.7344 4.5056-7.7824 7.7824-10.24 2.048 7.7824 10.24 4.5056 18.0224 4.5056-2.048-4.5056 2.048-4.5056 2.048-2.048-2.048-2.048-2.048-5.7344-5.7344-5.7344 0 2.048 0 2.048-2.048 2.048-2.048 4.5056 4.5056 0 2.048 4.5056-2.048-2.048-5.7344 0-5.7344-2.048s2.048-2.048 2.048-4.5056c-10.24 2.048-18.0224 5.7344-30.3104 5.7344 2.048 7.7824-10.24 2.048-4.5056 7.7824-4.5056 0-7.7824-2.048-4.5056-4.5056-5.7344 0-14.7456 2.048-10.24 5.7344 0-2.048 0-2.048 2.048-2.048-2.048 2.048 0 5.7344-2.048 5.7344-2.048-2.048-4.5056-2.048-5.7344-4.5056 0-2.048 2.048-2.048 2.048-4.5056-5.7344-2.048-7.7824 2.048-10.24 4.5056-7.7824-4.5056-22.528 5.7344-34.816 5.7344-2.048 2.048 0 4.5056-2.048 4.5056-4.5056 2.048-5.7344-2.048-7.7824-2.048 0 5.7344-7.7824 5.7344-10.24 10.24-2.048-4.5056 2.048-2.048 2.048-5.7344-4.5056 2.048-7.7824 5.7344-12.288 2.048-2.048 4.5056-7.7824 4.5056-14.7456 4.5056-22.528 5.7344-45.9776 13.5168-73.0112 18.0224-4.5056 2.048 0 4.5056-2.048 5.7344 0-2.048-2.048-4.5056-4.5056-4.5056-2.048 2.048 0 4.5056-2.048 4.5056 0-2.048-2.048-2.048-5.7344-2.048-74.24 22.4256-91.0336 19.968-167.3216 41.2672 2.048 0 2.048 0 2.048 2.048-5.7344 2.048-4.5056-4.5056-10.24-2.048-2.048 4.5056-4.5056 7.7824-5.7344 12.288-7.7824-5.7344 0-13.5168-4.5056-22.4256-2.048 2.048-5.7344 5.7344-7.7824 2.048 0-4.5056 4.5056-2.048 5.7344-2.048v-7.7824c-2.048 0-2.048 2.048-4.5056 2.048 7.7824-7.7824-2.048-19.2512-2.048-35.9424-2.048-2.048-4.5056 0-4.5056-2.048s-2.048-4.5056-2.048-2.048c2.048 7.7824-5.7344 7.7824-5.7344 13.5168-2.048 0-4.5056 0-4.5056-2.048 5.7344-2.048 4.5056-13.5168 10.24-18.0224-1.2288-18.0224-5.7344-35.9424-15.5648-50.2784v-4.5056c1.2288 0 2.048-1.2288 2.048-3.2768 1.1264-0.8192-0.1024-0.8192-0.9216-0.8192z" fill="#82ca13" p-id="1218"></path><path d="M29.2864 515.4816c-1.2288 1.2288-3.2768 1.2288-6.5536 1.2288V510.976c-4.5056 0 2.048 5.7344-4.5056 4.5056V510.976c-4.5056 0-4.5056-2.048-7.7824-2.048-4.5056 4.5056-2.048 10.24-2.048 15.5648h4.5056c2.048 0 0-5.7344 2.048-7.7824 4.5056-2.048 4.5056 2.048 5.7344 2.048 0 7.7824 2.048 12.288 2.048 18.0224 0 0-2.048 0-2.048-2.048H19.456c0-4.5056 4.5056-2.048 2.048-5.7344 2.048 4.5056 2.048 2.048-2.048 2.048-2.048 0 0 2.048-2.048 4.5056h-6.5536c0-13.5168-5.7344-16.7936-5.7344-28.9792 4.5056 0 4.5056 2.048 5.7344 2.048 2.048 0 0-2.048 2.048-4.5056 7.7824 2.048 12.288-5.7344 18.0224 0 2.048-2.048 5.7344-2.048 5.7344-5.7344 4.5056-2.048 4.5056 2.048 4.5056 4.5056 0-7.7824 7.7824-4.5056 15.5648-7.7824-2.048 4.5056 4.5056 2.048 2.048 7.7824h4.5056v-4.5056c0-4.5056-5.7344 0-4.5056-2.048 2.048-4.5056 10.24-10.24 14.7456-4.5056 2.048 0 0-2.048 2.048-4.5056 2.048 0 2.048 2.048 4.5056 2.048 12.288-7.7824 34.816-7.7824 48.4352-13.5168l-7.7824 4.5056c15.5648-4.5056-2.048 0 15.5648-2.048-2.048 5.7344 4.5056 4.5056 5.7344 4.5056 0-4.5056-4.5056-2.048-2.048-5.7344 20.0704-2.048 36.0448-13.5168 56.2176-12.288 2.048 0 0-2.048 2.048-4.5056 14.7456-4.5056 30.3104-7.7824 45.1584-12.288 20.0704-2.048 38.0928-10.24 56.2176-13.5168 45.1584-10.24 88.576-22.4256 129.2288-33.4848 12.288 0 20.0704-7.7824 32.3584-4.5056 2.048 0 0-2.048 2.048-4.5056 2.048 0 7.7824-2.048 5.7344 2.048 0-2.048 4.5056-2.048 4.5056-4.5056 101.2736-25.7024 202.1376-53.9648 304.3328-79.6672 4.5056 0 2.048 5.7344 5.7344 4.5056 2.048-4.5056-4.5056-2.048-2.048-5.7344h2.048v-2.048c1.2288 0 3.2768 0 4.5056 1.2288 6.5536-1.2288 12.288-2.048 19.2512-4.5056 1.2288-1.2288 3.2768-2.048 5.7344-1.2288 6.5536-2.048 14.7456-3.2768 21.2992-5.7344l18.0224-5.7344c24.576-2.048 40.5504-10.24 60.7232-13.5168-2.048 4.5056 2.048 4.5056 4.5056 5.7344 4.5056-2.048-4.5056-2.048-2.048-5.7344 25.8048-5.7344 4.5056-4.5056 30.3104-7.7824 0 10.24 5.7344 15.5648 2.048 22.4256 0 2.048 2.048 0 4.5056 2.048 0 13.5168 12.288 27.7504 5.7344 40.448 5.7344 5.7344 5.7344 19.968 10.24 27.7504-4.5056 0-2.048-4.5056-5.7344-2.048 10.24 5.7344 14.7456 20.0704 12.288 33.4848 4.5056 0-2.048-7.7824 4.5056-5.7344-2.048 12.288 10.24 22.4256 4.5056 31.4368 12.288 13.5168 7.7824 41.2672 20.0704 56.0128 2.048 23.6544 10.24 37.9904 14.7456 58.0608-45.9776 12.288-45.9776 15.5648-91.0336 27.7504h-25.8048c-9.0112-2.048-9.0112 0-14.7456 0 2.048-4.5056-4.5056-2.048-4.5056-5.7344-2.048 0-2.048 5.7344 2.048 4.5056-15.5648 7.7824-34.816 13.5168-54.9888 15.5648 0-4.5056-2.048-5.7344-5.7344-5.7344 0 2.048 4.5056 4.5056 2.048 7.7824-18.0224 2.048-38.0928 15.5648-56.2176 10.24-2.048 0 0 2.048-2.048 4.5056-70.9632 20.0704-143.9744 37.9904-213.7088 58.0608-4.5056 0-2.048-4.5056-4.5056-4.5056-2.4576 0 0 4.5056-2.048 5.7344-15.5648 2.048-27.8528 7.7824-40.5504 5.7344 0-4.5056 7.7824 0 5.7344-5.7344 4.5056 0 4.5056 2.048 5.7344 2.048 2.048 0 0-5.7344 4.5056-4.5056 0-2.048-2.048-5.7344-2.048-10.24 2.048 4.5056 4.5056 2.048 4.5056-2.048 4.5056 0 7.7824 0 7.7824 2.048 2.048 0 0-2.048 2.048-4.5056 30.3104-5.7344 58.2656-15.5648 88.576-23.6544 12.288 0 22.528-4.5056 32.3584-10.24 5.7344 4.5056 14.7456-4.5056 24.576-4.5056 2.048 4.5056-2.048 2.048-4.5056 4.5056 4.5056 2.048 5.7344-5.7344 12.288-10.24 4.5056-2.048 7.7824 2.048 10.24-2.048 0 2.048-2.048 5.7344 2.048 5.7344 2.048 0 0-4.5056 2.048-5.7344 25.8048-5.7344 48.4352-15.5648 80.7936-18.0224 7.7824-7.7824 25.8048-7.7824 34.816-13.5168 10.24 4.5056 24.576-7.7824 40.5504-7.7824 0 5.7344 5.7344 5.7344 5.7344 10.24 2.048-4.5056-7.7824-5.7344-5.7344-12.288 5.7344-2.048 4.5056 4.5056 5.7344 4.5056 2.048 0 0-4.5056 2.048-5.7344 5.7344 2.048 12.288-4.5056 12.288 0 10.24-4.5056 27.8528-10.24 38.0928-7.7824 2.048-4.5056-4.5056 0-2.048-4.5056 2.048 0 7.7824 2.048 7.7824-2.048 14.7456 2.048-5.7344 2.048 10.24-2.048 2.048 4.5056-4.5056 0-2.048 4.5056 4.5056 0 4.5056-5.7344 5.7344-5.7344 24.576 2.048 42.7008-18.0224 60.7232-10.24 4.5056-2.048 5.7344-10.24 0-12.288-4.5056 0 2.048 7.7824-4.5056 5.7344 0-25.7024-18.0224-45.7728-12.288-69.4272 4.5056-2.048 0 4.5056 4.5056 4.5056 4.5056-2.048-2.048-4.5056-2.048-5.7344 2.048 0 2.048 0 2.048-2.048s-4.5056 0-5.7344-2.048c-2.048 0 0 4.5056-2.048 5.7344-7.7824-18.0224-12.288-41.2672-19.2512-62.464 0-1.2288-1.2288-1.2288-1.2288-2.048 0-1.2288-1.2288-2.048-1.2288-3.2768 0 0-1.2288 0-1.2288 1.2288-1.2288-1.2288 0-2.048 0-2.048-1.2288-2.048-1.2288-3.2768-2.048-5.7344-2.048-4.5056 2.048-5.7344 2.048-7.7824s-2.048 0-4.5056-2.048c-5.7344-23.6544-12.288-43.7248-18.0224-66.9696 5.7344 4.5056 4.5056-5.7344 10.24-5.7344-4.5056 0-4.5056-2.048-5.7344-5.7344-2.048 0 0 5.7344-2.048 10.24-7.7824 2.048-2.048-7.7824-7.7824-10.24 0-2.048 5.7344 0 5.7344 0 2.048-2.048 0-5.7344 4.5056-5.7344l-4.5056-4.5056c-4.5056 0 0 5.7344-2.048 4.5056-4.5056 0 0-2.048-2.048-4.5056-5.7344-2.048-5.7344 4.5056-10.24 4.5056 0 4.5056 4.5056 4.5056 4.5056 7.7824-5.7344 4.5056-14.7456 5.7344-20.0704 10.24-4.5056 2.048 0-4.5056-4.5056-4.5056-2.048 2.048 42.7008-4.5056 36.0448-4.5056v-7.7824h-4.5056c-2.048 2.048 0 7.7824-2.048 10.24-45.1584 10.24-84.0704 23.6544-129.2288 31.4368v-7.7824c-2.048 0-2.048 2.048-4.5056 2.048 2.048 2.048 4.5056 4.5056 2.048 10.24-78.7456 19.968-159.5392 40.448-235.8272 63.6928-12.288-2.048-20.0704 10.24-27.8528 2.048-2.048 2.048-2.048 4.5056-4.5056 5.7344-4.5056-3.2768-11.0592-1.2288-15.5648 1.2288-2.048 1.2288-4.5056 2.048-5.7344 2.048v-5.7344h-5.7344c2.048 4.5056 2.048 2.048 0 5.7344-4.5056-4.5056-5.7344 2.048-14.7456 0-2.048 0 0 4.5056-2.048 5.7344-7.7824-4.5056 5.7344-10.24 0-12.288h4.5056v-4.5056c-4.5056 0-2.048 4.5056-5.7344 2.048-2.048 2.048-2.048 5.7344-5.7344 5.7344 2.048-2.048 4.5056-2.048 4.5056-5.7344-2.048 2.048-5.7344 4.5056-10.24 4.5056 5.7344 0 2.048 7.7824 10.24 5.7344v5.7344c-4.5056-2.048-4.5056-10.24-10.24-10.24 0 4.5056-4.5056 5.7344-5.7344 7.7824 2.048 4.5056 4.5056-4.5056 7.7824-2.048v4.5056c-4.5056 0-5.7344 0-7.7824 2.048-2.048-4.5056-7.7824-2.048-10.24-7.7824-4.5056 2.048 0 4.5056 0 5.7344-2.048-2.048-5.7344-5.7344-5.7344-12.288-4.5056-2.048-4.5056 2.048-5.7344 4.5056 2.048 2.048 2.048 4.5056 5.7344 4.5056v7.7824c4.5056 2.048 0-4.5056 4.5056-2.048 2.048 4.5056-4.5056 0-2.048 4.5056-78.5408 20.3776-157.2864 40.8576-233.472 62.0544-10.24 0-15.5648 4.5056-24.576 5.7344-2.048 0-2.048-2.048-2.048-4.5056h-6.5536c-2.048 4.5056 4.5056 2.048 2.048 5.7344-5.7344-2.048-12.288 5.7344-15.5648 0-4.5056 7.7824-18.0224 10.24-25.8048 4.5056 0 4.5056 4.5056 2.048 2.048 5.7344-5.7344 2.048-2.048-5.7344-7.7824-4.5056 0 2.048 2.048 2.048 2.048 4.5056h-3.2768c-1.2288 1.2288-3.2768 1.2288-5.7344 1.2288 1.2288-1.2288 1.2288-2.048 2.048-3.2768-1.2288 0-3.2768 0-2.048 3.2768 3.2768-5.7344 3.2768-4.5056 3.2768-4.5056-4.5056 0-6.5536 0-10.24 1.2288v1.2288h-2.048c-2.048 1.2288-4.5056 1.2288-7.7824 2.048 0-2.048 2.048-2.048 2.048-4.5056-4.5056 0-5.7344 2.048-5.7344 5.7344-2.048 0-2.048 0-2.048-2.048-2.048 0 0 2.048-2.048 4.5056-4.5056-4.5056 18.0224-13.5168 14.7456-10.24v-4.5056c-4.5056 0-4.5056 4.5056-5.7344 5.7344 2.048 4.5056 2.048-4.5056 5.7344-2.048-1.2288 1.2288-1.2288 2.048 0 3.2768v1.2288c-12.288 5.7344-15.5648 15.5648-24.576 10.24-4.5056 0 2.048 2.048 0 4.5056-5.7344 2.048-14.7456 2.048-18.0224 4.5056 0-4.5056 0-4.5056 2.048-5.7344-4.5056-2.048-7.7824-7.7824-12.288-5.7344 2.048 4.5056 4.5056 4.5056 10.24 4.5056-2.048 4.5056-2.048 7.7824-5.7344 10.24-4.5056 0-2.048-4.5056-4.5056-4.5056-2.048 2.048-2.048 4.5056-4.5056 5.7344-7.7824 0-14.7456 2.048-20.0704 4.5056 0-2.048 2.048-5.7344-2.048-5.7344-2.048 0 0 4.5056-2.048 5.7344 0 4.5056-2.048-2.048-2.048-4.5056-2.048 1.2288-3.2768 2.048-4.5056 3.2768v3.2768c-3.584-0.9216-4.8128-0.9216-6.0416-2.1504z" fill="#82ca13" p-id="1219"></path><path d="M135.168 485.2736c-1.2288 0-1.2288 0 0 0l-1.2288 2.048c0 1.2288-1.2288 1.2288-1.2288 1.2288 1.2288 1.2288 2.048 1.2288 3.2768 1.2288l-0.8192-4.5056zM421.376 902.7584c-4.5056 2.048-6.5536-2.048-9.0112-2.048 4.5056-6.5536 13.5168-2.048 0-6.5536 0 6.5536-2.048 9.0112-2.048 13.5168 0 0-6.5536 2.048-4.5056 2.048 6.5536-2.048 6.5536 4.5056 13.5168 2.048 0-4.5056 0-6.5536 2.048-9.0112 0 4.5056 1.2288 7.7824-2.048 9.0112 4.5056 2.048 4.5056 6.5536 11.0592 4.5056 2.048-4.5056-4.5056 0-2.048-4.5056 6.5536 0 21.2992-4.5056 16.7936 4.5056v-4.5056c-4.5056 2.048-4.5056 4.5056-6.5536 6.5536 9.0112 0 21.2992 2.048 23.7568-4.5056v6.5536c2.048 0 2.048-9.0112 2.048-13.5168 4.5056-2.048 2.048 2.048 2.048 0-2.048-4.5056-2.048-2.048 0-6.5536-6.5536-2.048-13.5168-2.048-23.7568 0 0-2.048-4.5056-4.5056-6.5536-4.5056 0 2.048 2.048 4.5056 0 4.5056s-2.048-2.048-2.048-4.5056c-4.5056 2.048-9.0112 2.048-11.0592 0-2.4576 1.2288-2.4576 4.9152-1.6384 6.9632zM384.4096 903.9872c3.2768 1.2288 5.7344 1.2288 9.0112 2.048-2.048-4.5056 2.048-6.5536 2.048-9.0112 2.048 0-2.048 6.5536 2.048 4.5056 2.048-4.5056-2.048-4.5056-2.048-6.5536h4.5056v-6.5536c-4.5056 0-6.5536 2.048-9.0112 2.048 2.048-2.048 0-2.048 0-4.5056-19.2512-2.048-34.816-9.0112-51.712-16.7936v2.048c0-4.5056-6.5536 0-4.5056-4.5056-4.5056 0-6.5536 2.048-9.0112-2.048 0 0 2.048 4.5056 0 4.5056 0 0-2.048 2.048-2.048 0s4.5056 0 2.048-4.5056c-4.5056-4.5056-9.0112-9.0112-19.2512-9.0112 0 2.048-2.048 4.5056-4.5056 4.5056 0-2.048 4.5056-2.048 2.048-6.5536-6.5536-2.048-11.0592-9.0112-19.2512-11.0592l-4.5056 4.5056c-2.048-2.048-4.5056-2.048-6.5536-4.5056 2.048-9.0112-11.0592-13.5168-21.2992-16.7936 2.048-6.5536-6.5536-2.048-4.5056-9.0112-2.048-2.048-2.048 2.048-4.5056 2.048 0-2.048-4.5056 0-2.048-4.5056-2.048-2.048-2.048 2.048-4.5056 2.048 2.048 0 4.5056-2.048 4.5056 0-2.048 4.5056 0 11.0592-4.5056 11.0592 2.048-4.5056-4.5056-2.048-4.5056-4.5056v-4.096h4.5056c-4.5056-2.048-4.5056-6.5536 0-9.0112 0 2.048 0 2.048 0 0 0-4.5056-2.048 2.048-6.5536 4.5056-2.048 2.048 4.5056 2.048 0 4.5056 0 0 0-2.048-2.048-2.048-2.048 2.048-2.048 6.5536-2.048 11.0592 6.5536 0 6.5536 4.5056 11.0592 6.5536 0-2.048 0-4.5056 2.048-4.5056v6.5536c11.0592 6.5536 23.7568 16.7936 36.864 23.6544 2.048-9.0112 9.0112 4.5056 13.5168-2.048 0 2.048 2.048 2.048 2.048 4.5056-4.5056 0-4.5056 2.048-4.5056 6.5536 9.0112-2.048 11.0592 2.048 16.7936 6.5536 2.048-2.048-4.5056-4.5056 0-6.5536 2.048 2.048 2.048 4.5056 2.048 9.0112 9.0112 2.048 16.7936 4.5056 25.8048 9.0112 2.048-4.5056-4.5056-4.5056-4.5056-9.0112 4.5056-2.048 0 4.5056 4.5056 2.048 2.048-2.048 2.048-4.5056 2.048-9.0112 2.048 2.048 9.0112 6.5536 4.5056 11.0592 0 0 0-2.048-2.048-2.048 0 4.5056 2.048 6.5536 2.048 9.0112 9.0112-2.048 9.0112 2.048 16.7936 2.048 0-2.048 2.048-4.5056 2.048-6.5536 0 0 2.048 2.048 2.048 6.5536h6.5536c-2.048 4.5056 0 4.5056 0 6.5536 5.7344 1.2288 10.24 2.048 14.7456 4.5056 2.56 1.7408 2.56 1.7408 3.7888 1.7408zM662.1184 771.9936l6.5536-6.5536c2.048-2.048-4.5056 2.048-2.048-2.048 6.5536 2.048 9.0112 0 9.0112-4.5056 2.048 0 0 2.048 0 4.5056 4.5056 0 2.048-6.5536 11.0592-4.5056 2.048-2.048-4.5056-4.5056 0-6.5536 2.048 2.048 3.2768 2.048 4.5056 2.048v-1.2288l4.5056-4.5056h2.048v-2.048c1.2288 0 2.048-1.2288 4.5056 0v-4.5056c11.0592-4.5056 16.7936-16.7936 27.8528-23.6544 0-9.0112 9.0112-9.0112 9.0112-19.2512h6.5536c0-4.5056 4.5056-11.0592 0-16.7936 6.5536 2.048 9.0112-2.048 11.0592-4.5056 16.7936-30.208 27.8528-51.5072 36.864-88.2688-6.5536-2.048-6.5536 6.5536-13.5168 4.5056-9.0112 41.2672-21.2992 60.416-41.3696 88.2688 0 4.5056 2.048 13.5168 0 16.7936-2.048-2.048-4.5056-2.048-9.0112-2.048-19.2512 23.6544-39.3216 45.7728-65.2288 62.464v2.048c-9.0112-2.048-16.7936 4.5056-21.2992 11.0592-16.7936 2.048-27.8528 16.7936-47.2064 19.2512 0 2.048 2.048 4.5056 0 4.5056-4.5056-4.5056-16.7936 0-19.2512 6.5536-2.048 0 2.048-6.5536-2.048-4.5056-6.5536 4.5056-19.2512 4.5056-23.7568 9.0112-2.048-4.5056-6.5536 0-9.0112 2.048-13.5168-4.5056-32.3584 4.5056-51.712 2.048 0 0 0 2.048-2.048 2.048 0-2.048 2.048-2.048 2.048-2.048-13.5168 0-23.7568-2.048-32.3584 2.048v-4.5056c-6.5536 0-11.0592 0-16.7936-2.048-4.5056 2.048-4.5056 4.5056-4.5056 6.5536 0-2.048-2.048-2.048-2.048-2.048 2.048 0 2.048-2.048 2.048-4.5056-6.5536 0-11.0592-2.048-16.7936-4.5056 0 2.048 2.048 4.5056 0 4.5056-4.5056-4.5056-11.0592-6.5536-16.7936-9.0112 0 2.048 2.048 4.5056 0 4.5056 0 0-2.048 2.048-2.048 0 0 0 2.048 0 2.048-2.048-6.5536 0-11.0592-2.048-19.2512-4.5056-2.048 0 0 4.5056-2.048 4.5056 0 0-2.048 2.048-2.048 0 2.048 0 2.048 0 2.048-4.5056-4.5056-2.048-9.0112 2.048-13.5168 0 0-2.048 6.5536 2.048 4.5056-2.048-13.5168-2.048-19.2512-13.5168-32.3584-16.7936 0 2.048-2.048 4.5056-4.5056 4.5056-2.048-4.5056 2.048-4.5056 2.048-6.5536-16.7936-9.0112-30.3104-21.1968-43.9296-30.208 0 2.048 0 4.5056-4.5056 4.5056-2.048 4.5056 4.5056 0 2.048 4.5056 2.048 0 0-4.5056 4.5056-4.5056 2.048 4.5056-4.5056 4.5056-2.048 9.0112 4.5056-2.048 4.5056 2.048 6.5536 2.048 0-4.5056 2.048-6.5536 4.5056-9.0112-2.048 4.5056 0 6.5536 0 9.0112h-4.5056c2.048 4.5056 6.5536 6.5536 11.0592 9.0112 2.048-4.5056-4.5056 0-2.048-4.5056h4.5056c0 4.5056 2.048 6.5536 2.048 9.0112 2.048 0 2.048-2.048 2.048-2.048 4.5056 6.5536 11.0592 13.5168 25.8048 13.5168-2.048 2.048 0 2.048 0 4.5056 4.5056 0 6.5536 2.048 9.0112 2.048 0-2.048 4.5056-4.5056 6.5536-2.048-2.048 0-2.048 2.048-2.048 6.5536 4.5056 0 9.0112 0 11.0592 4.5056 4.5056 2.048 0-4.5056 4.5056-2.048-2.048 4.5056 4.5056 0 2.048 4.5056 21.2992 4.5056 47.2064 19.2512 69.7344 13.5168 2.048 0 0 4.5056 4.5056 4.5056s2.048-4.5056 6.5536-4.5056v4.5056c6.5536-2.048 13.5168 0 21.2992 2.048-2.048-4.5056 2.048-4.5056 2.048-6.5536-2.048 0-4.5056 4.5056-6.5536 0 2.048-2.048 4.5056-2.048 6.5536-4.5056 0 2.048 4.5056 0 4.5056 2.048v2.048c-4.5056 0-4.5056 0-4.5056 4.5056 13.5168 0 25.8048-2.048 43.9296-2.048 0-2.048-2.048-4.5056 0-4.5056v4.5056c4.5056-4.5056 16.7936-2.048 21.2992-6.5536 0 0 0 2.048 2.048 2.048 19.2512-6.5536 41.3696-9.0112 56.2176-21.1968 6.5536 0 19.2512-2.048 21.2992-9.0112 0 0 0 2.048 2.048 2.048 14.848-2.1504 25.9072-6.656 36.1472-14.4384-1.2288 0.8192 0 0 0 0z" fill="#82ca13" p-id="1220"></path><path d="M495.616 911.7696c13.5168-1.2288 23.7568-3.2768 30.3104 0 7.7824-1.2288 16.7936-2.048 24.576-4.5056-1.2288 1.2288-1.2288 2.048-1.2288 4.5056h4.5056c0-2.048 0-4.5056 1.2288-5.7344 2.048-1.2288 4.5056-2.048 6.5536-3.2768 2.048 2.048-2.048 2.048-2.048 4.5056 6.5536-2.048 16.7936-2.048 19.2512-6.5536 2.048 0 2.048 0 2.048 2.048 4.5056 0 4.5056-4.5056 9.0112-4.5056 0 2.048 0 4.5056 2.048 4.5056 4.5056-2.048 6.5536-4.5056 13.5168-4.5056 0-2.048-2.048-6.5536 0-6.5536 2.048 6.5536 9.0112 2.048 13.5168 2.048 0-1.2288-3.2768-3.2768-3.2768-4.5056H614.4V882.688c4.5056-2.048 4.5056 2.048 9.0112 2.048 0 3.2768-1.2288 5.7344-3.2768 6.5536 3.2768-1.2288 6.5536-1.2288 10.24-2.048 0 1.2288 0 1.2288 2.048 0v-1.2288c7.7824-2.048 15.5648-5.7344 23.7568-9.0112 1.2288 2.048 2.048 2.048 4.5056 1.2288v-4.5056c7.7824-3.2768 15.5648-7.7824 23.7568-12.288v1.2288h6.5536c0-2.048 2.048-6.5536 0-4.5056-1.2288 1.2288-1.2288 1.2288-2.048 1.2288 2.048-1.2288 4.5056-2.048 6.5536-3.2768 0-2.048 0-2.048 0 0 1.2288 0 2.048-1.2288 3.2768-2.048 3.2768-2.048 6.5536-3.2768 10.24-4.5056 0-2.048-2.048-4.5056 0-6.5536 0 2.048 0 4.5056 2.048 4.5056 16.7936-6.5536 27.8528-19.2512 41.3696-27.7504 2.048-4.5056-4.5056 0-2.048-4.5056 4.5056-2.048 0 4.5056 4.5056 2.048 0-2.048-2.048-6.5536 0-6.5536s-2.048 6.5536 2.048 4.5056c13.5168-19.2512 34.816-30.208 47.2064-51.5072-2.048 0-4.5056 2.048-4.5056 0 2.048 0 2.048-2.048 4.5056-2.048v4.5056c6.5536-2.048 9.0112-11.0592 13.5168-19.2512 2.048-2.048 4.5056-2.048 6.5536-4.5056 2.048-2.048 0-6.5536 2.048-9.0112 2.048-2.048 6.5536-4.5056 9.0112-6.5536 2.048-4.5056 2.048-9.0112 4.5056-13.5168 0-2.048 4.5056 0 4.5056-2.048v-4.5056l6.5536-6.5536c2.048-6.5536 4.5056-16.7936 6.5536-21.1968 2.048 0 4.5056 0 4.5056-2.048s-2.048-6.5536 0-9.0112c0-2.048 4.5056-2.048 4.5056-4.5056v-6.5536s4.5056 0 4.5056-2.048v-6.5536s4.5056-2.048 4.5056-4.5056c0-6.5536 0-13.5168 2.048-21.1968 0 0 4.5056-2.048 4.5056-4.5056 2.048-13.5168 2.048-30.208 6.5536-41.2672l-19.2512-4.5056c-9.0112 51.5072-23.7568 97.28-51.712 127.488-2.048 4.5056 4.5056 0 2.048 4.5056-2.048 0-2.048 4.5056-6.5536 2.048-2.048 6.5536-4.5056 13.5168-4.5056 23.6544l3.2768-4.5056c2.048 0 2.048 0 2.048-4.5056-4.5056 6.5536-9.0112 11.0592-13.5168 19.2512-2.048 2.048 4.5056 4.5056 2.048 6.5536 0 0-2.048 0-2.048-4.5056-4.5056 4.5056-9.0112 9.0112-9.0112 16.7936-2.048 2.048-2.048 0-4.5056 0 0 2.048 0 6.5536-6.5536 6.5536-4.5056 9.0112-21.2992 16.7936-16.7936 25.7024l-5.7344-5.7344v4.5056c-16.7936 4.5056-23.7568 21.1968-39.3216 27.7504 0 2.048 2.048 2.048 2.048 2.048-4.5056-2.048-6.5536 2.048-11.0592 2.048v4.5056c-23.7568 13.5168-47.2064 23.6544-67.2768 36.7616-2.048-2.048-13.5168 2.048-16.7936 6.5536 0 0 0-2.048-2.048-2.048-9.0112 6.5536-25.8048 9.0112-39.3216 11.0592-2.048 4.5056 2.048 2.048 2.048 6.5536-2.048 0-4.5056 2.048-6.5536 0 2.048 0 2.048 0 2.048-2.048-4.5056 2.048 0-4.5056-4.5056-2.048-6.5536 4.5056-23.7568 0-27.8528 6.5536-4.5056-4.5056-16.7936 0-21.2992 0 4.5056 4.5056-2.048 4.5056 0 11.0592 2.048 0 4.5056-2.048 4.5056 0s2.048 4.5056 0 4.5056c0 0-2.048 0-2.048-4.5056-4.5056-2.048 0 4.5056-4.5056 2.048 2.048-4.5056-4.5056-2.048-4.5056-4.5056-2.048-2.048 2.048-2.048 2.048-4.5056-6.5536 0-4.5056 11.0592-13.5168 6.5536 0-2.048-2.048-4.5056 0-4.5056 4.5056-2.048 0 6.5536 4.5056 4.5056v-11.0592c-4.5056-2.048-6.5536 4.5056-9.0112 0 0 4.5056-9.0112 2.048-11.0592 2.048 0 2.048 2.048 6.5536 0 6.5536-2.048-6.5536-2.048 4.5056-4.5056 2.048-2.048-4.5056 4.5056-4.5056 2.048-9.0112h-11.0592c0 2.048 6.5536 2.048 6.5536 4.5056 0 0 0 4.5056-2.048 4.5056s0-4.5056-4.5056-2.048c2.048 2.048 4.5056 6.5536 0 11.0592h11.0592c-1.2288 1.2288-2.048 2.048-4.5056 2.048 0 2.048 0 4.5056 2.048 4.5056-0.3072-1.8432 6.2464-1.8432 6.2464-3.8912zM495.616 911.7696s-0.8192 0 0 0c-0.8192 0 0 0 0 0z" fill="#82ca13" p-id="1221"></path><path d="M619.4176 889.2416v1.2288h1.2288l-1.2288-1.2288zM779.776 247.0912c-1.2288 7.7824 14.7456 5.7344 7.7824 10.24 2.048 0 2.048-2.048 6.5536 0 0 0-2.048-2.048 0-2.048 2.048 4.5056 2.048 0 4.5056 0 0 2.048 4.5056 4.5056 2.048 11.0592h-4.5056v4.5056c4.5056 0 4.5056 0 9.0112-2.048 0 2.048-2.048 4.5056-6.5536 4.5056 4.5056 4.5056 2.048 4.5056 6.5536 9.0112l23.7568-6.5536c-2.048 0-4.5056 2.048-4.5056 0v-4.5056c-4.5056-2.048-6.5536-6.5536-9.0112-11.0592-2.048-2.048-2.048 4.5056-4.5056 0 0 0 2.048 0 2.048-2.048-2.048-2.048-4.5056-2.048-4.5056-4.5056-2.048-2.048-4.5056 4.5056-6.5536 0h4.5056c0-2.048-4.5056-4.5056-4.5056-9.0112h-6.5536v-6.5536c-19.2512-9.0112-21.2992-32.256-47.2064-32.256 0 0 2.048 4.5056 0 4.5056 2.048-4.5056-4.5056-6.5536 0-9.0112 2.048 4.5056 2.048-2.048 6.5536 2.048 0-6.5536-9.0112-13.5168-16.7936-9.0112 0 2.048 4.5056 0 4.5056 2.048-2.048 6.5536-9.0112 19.2512 0 21.1968 4.5056 2.048 0-4.5056 4.5056-2.048 2.048 4.5056-4.5056 0-2.048 4.5056 9.0112 6.5536 13.5168 19.2512 30.3104 21.1968 0 2.048-6.5536-2.048-4.5056 2.048 2.048 0 4.5056 2.048 4.5056 6.5536 1.2288 1.2288 2.048 0 2.048 0 1.7408-2.7648 2.56-2.7648 2.56-2.7648zM129.3312 348.7744c3.2768-3.2768 1.2288-11.0592 5.7344-11.0592 0-2.048-4.5056-4.5056-2.048-6.5536 0 2.048 4.5056 0 2.048 4.5056 2.048 2.048 0-2.048 2.048-2.048l2.048 2.048c-2.048 0-2.048 4.5056-6.5536 2.048 2.048 4.5056-2.048 4.5056-2.048 6.5536 4.5056 0 2.048 4.5056 6.5536 2.048 2.048-4.5056-4.5056 0-2.048-4.5056 2.048 2.048 0-4.5056 2.048-4.5056 0 0 0 2.048 2.048 2.048 11.0592-23.6544 23.7568-45.7728 41.3696-62.464V270.336h4.5056c0-11.0592 11.0592-9.0112 13.5168-21.1968h4.5056c2.048-6.5536 9.0112-13.5168 16.7936-19.2512 9.0112-6.5536 13.5168-16.7936 23.7568-19.2512 2.048-4.5056 4.5056-6.5536 6.5536-9.0112 6.5536 2.048 4.5056-4.5056 11.0592-4.5056 9.0112-13.5168 32.3584-19.2512 47.2064-32.256 34.816-11.0592 65.2288-30.208 109.8752-34.7136 2.048-2.048-4.5056-2.048 0-4.5056 27.8528 2.048 65.2288-4.5056 102.0928-2.048 0-2.048 0-4.5056 4.5056-2.048-2.048 2.048 2.048 2.048 2.048 4.5056 9.0112-2.048 19.2512 4.5056 23.7568 0 4.5056 4.5056 19.2512 9.0112 21.2992 0v6.5536c4.5056 0 9.0112 0 11.0592 2.048 2.048-4.5056-2.048-4.5056-2.048-6.5536 4.5056 2.048 0-4.5056 4.5056-2.048 2.048 4.5056-4.5056 0-2.048 4.5056 2.048 0 2.048 2.048 2.048 4.5056 9.0112 0 19.2512 4.5056 25.8048 6.5536 0 0 0-2.048 2.048-2.048-4.5056-2.048 2.048-4.5056-2.048-9.0112h4.5056c0 2.048 0 2.048 2.048 4.5056-4.5056 2.048-4.5056 4.5056-4.5056 11.0592 2.048 2.048 0-4.5056 2.048-4.5056 0 0 2.048-2.048 2.048 0 0 0-2.048 0-2.048 2.048 2.048 0 2.048 0 2.048 2.048 3.2768 3.2768 3.2768-1.2288 5.7344-1.2288v4.5056c36.864 11.0592 65.2288 32.256 95.5392 51.5072 0-2.048 4.5056-4.5056 6.5536-2.048-2.048 0 0 4.5056-2.048 4.5056 0 0 0-2.048-2.048-2.048 0 2.048 4.5056 2.048 6.5536 2.048 2.048-6.5536 2.048-16.7936 2.048-23.6544-6.5536 2.048-6.5536-6.5536-13.5168-4.5056 2.048-2.048 0-2.048 0-4.5056-25.8048-13.5168-49.664-27.7504-74.24-39.2192-2.048 0 0 4.5056-4.5056 2.048v-4.5056c-11.0592 0-19.2512-11.0592-30.3104-6.5536 2.048 0 2.048 0 2.048 2.048-4.5056 2.048-9.0112 2.048-13.5168 4.5056 0-4.5056 4.5056-2.048 4.5056-6.5536 2.048-2.048-2.048 4.5056 2.048 2.048 0-2.048 4.5056 0 2.048-4.5056-16.7936-4.5056-32.3584-9.0112-51.712-11.0592 0 2.048 0 4.5056-2.048 4.5056 2.048-4.5056-4.5056-4.5056-9.0112-4.5056 0 2.048-2.048 4.5056-6.5536 4.5056v-7.7824c-11.0592-2.048-21.2992 6.5536-23.7568-2.048-6.5536 2.048-6.5536 0-13.5168 2.048-6.5536-4.5056-23.7568 0-36.864 2.048 0 4.5056-6.5536 2.048-2.048 6.5536-1.2288 0-3.2768 1.2288-4.5056 1.2288v-1.2288l-1.2288 1.2288c-1.2288 0-1.2288 0-1.2288-1.2288 0-2.048 4.5056-2.048 2.048-4.5056-19.2512-2.048-27.8528 4.5056-43.9296 2.048 0 2.048-4.5056 2.048-4.5056 4.5056-10.24-2.048-25.8048 5.7344-36.0448 10.24-4.5056 2.048 0-4.5056-4.5056-2.048-9.0112 4.5056-19.2512 4.5056-27.8528 9.0112 0 2.048 2.048 4.5056 0 4.5056-2.048-6.5536-9.0112 0-11.0592 0 0 2.048 2.048 6.5536 0 6.5536s2.048-9.0112-2.048-6.5536l-4.5056 4.5056c-62.5664 25.7024-106.496 64.9216-149.0944 111.8208 0 2.048 4.5056 2.048 4.5056 4.5056-4.5056-2.048 0 4.5056-4.5056 2.048 0-2.048 2.048-4.5056-2.048-4.5056 0-2.048 2.048 4.5056 0 4.5056-4.5056 0 2.048-2.048-2.048 2.048-2.048 2.048-6.5536 2.048-6.5536 4.5056v4.5056c-2.048 0-4.5056 0-6.5536 2.048 0 2.048 0 6.5536-2.048 9.0112-2.048 4.5056-2.048 2.048-4.5056 6.5536l-5.7344 3.2768c0 2.048 0 6.5536-2.048 9.0112 4.5056 2.048 0-6.5536 4.5056-4.5056 0 4.5056-2.048 6.5536-2.048 11.0592 0 0 1.2288 2.048 2.048 4.5056h-2.048c-3.2768 0-2.048 2.048-3.2768 3.2768 5.7344-3.2768 3.2768-3.2768 3.2768-7.7824h-9.0112c-4.5056 9.0112-6.5536 19.2512-11.0592 25.7024 2.048 0 2.048 6.5536 0 9.0112 0 0 0-2.048-2.048-2.048 1.2288 1.2288 1.2288 3.2768 2.048 4.5056-4.5056 0-2.048 13.5168-9.0112 9.0112 2.048-4.5056 2.048-6.5536 4.5056-11.0592h-5.7344c0 2.048 2.048 9.0112-2.048 9.0112 0 2.048 4.5056 2.048 2.048 6.5536H104.448c2.048 4.5056-2.048 4.5056-2.048 6.5536 4.5056-2.048 4.5056 2.048 6.5536 2.048 2.048-2.048 0-6.5536 4.5056-6.5536-2.048 6.5536-2.048 9.0112 0 16.7936-2.048 0-6.5536 2.048-6.5536 0-2.048-2.048 2.048-2.048 2.048-4.5056-6.5536 2.048-4.5056-2.048-9.0112-2.048 2.048 9.0112-2.048 11.0592 0 19.2512H94.208c0 16.7936-6.5536 27.7504-9.0112 43.7248-2.048 16.7936 0 21.1968-4.5056 36.7616h21.2992c0-43.7248 11.0592-66.9696 23.7568-99.6352 0 0-2.048-4.5056 0-6.5536 2.048 0-2.048 9.0112 2.048 6.5536-2.048-11.0592 4.5056-11.0592 4.5056-19.2512-1.7408 0.2048-1.7408-1.024-2.9696-3.072z" fill="#82ca13" p-id="1222"></path><path d="M127.2832 350.0032c-4.5056 0-5.7344-1.2288-6.5536-2.048v6.5536c4.096 0 6.5536-1.2288 6.5536-4.5056zM503.3984 198.8608h6.5536v4.5056c4.5056 0 6.5536-2.048 9.0112-4.5056 13.5168 4.5056 16.7936 4.5056 32.3584 4.5056v9.0112c4.5056 0 0-6.5536 6.5536-4.5056 0 2.048-4.5056 2.048-2.048 6.5536-9.0112 2.048-9.0112-4.5056-19.2512-2.048 0-4.5056 4.5056-2.048 6.5536-2.048v-2.048c-4.5056-2.048-11.0592 0-9.0112 4.5056-2.048-4.5056-13.5168 0-16.7936-4.5056-2.048 4.5056-6.5536 0-11.0592 0-2.8672-7.3728-0.4096-4.9152-2.8672-9.4208zM677.6832 268.288c4.5056 2.048 6.5536 2.048 13.5168 2.048 0 2.048-4.5056 2.048-2.048 6.5536-2.048-4.5056-11.0592-4.5056-13.5168-6.5536-2.4576-2.048 4.5056 0 2.048-2.048zM705.9456 293.9904h6.5536c0 2.048 0 2.048 2.048 2.048-2.048 2.048-2.048 4.5056-6.5536 4.5056 0-2.048-2.048-2.048-2.048-6.5536zM718.2336 296.0384s0 2.4576 0 0c0 4.5056 6.5536 0 4.5056 4.5056-4.5056-2.048-2.048 2.048-6.5536 2.048-3.6864-4.096 2.048-2.048 2.048-6.5536zM193.3312 432.5376v9.0112c-4.5056 0-9.0112 2.048-11.0592 2.048 1.2288-0.8192 1.2288-11.0592 11.0592-11.0592zM473.088 901.5296c2.048 0 2.048 2.048 2.048 4.5056h-4.5056c0.4096-4.5056 4.9152-2.048 2.4576-4.5056zM503.3984 916.2752c-2.048-2.048 0-2.048 0-4.5056h-2.048v4.5056c2.048-2.4576 2.048 4.5056 2.048 0zM202.3424 781.824c2.048 4.5056-2.048 4.5056-2.048 6.5536 4.5056 2.048 4.5056-2.048 6.5536-2.048v-4.5056h-4.5056zM197.8368 788.7872c0-2.048 2.048-6.5536-2.048-6.5536 2.048 2.048 0 6.5536 2.048 6.5536zM202.3424 797.7984c2.048 0 4.5056-2.048 4.5056-4.5056-4.5056 2.048 0-4.5056-4.5056-2.048v6.5536zM482.0992 200.9088c2.048 2.048 2.048 2.048 2.048 4.5056-16.7936-2.048-32.3584 6.5536-43.9296 2.048-9.0112 6.5536-30.3104 4.5056-39.3216 11.0592-2.048 0-2.048 0-2.048-2.048-2.048 4.5056-9.0112 4.5056-13.5168 9.0112-32.3584 6.5536-56.2176 27.7504-82.0224 41.2672 0-4.5056 4.5056-6.5536 4.5056-11.0592 0-2.048-2.048 0-4.5056 0 16.7936-13.5168 36.864-25.7024 60.7232-34.7136 0-2.048 4.5056-2.048 2.048-4.5056 16.7936 0 21.2992-9.0112 36.864-9.0112v4.5056c2.048 0 0-4.5056 0-6.5536 4.5056 4.5056 6.5536-2.048 4.5056 4.5056 4.5056 2.048 0-4.5056 4.5056-2.048 2.048-4.5056-4.5056 0-2.048-4.5056 9.0112-2.048 23.7568-6.5536 27.8528 0 4.5056 0 4.5056-4.5056 6.5536-4.5056 4.5056 0-2.048 4.5056 2.048 4.5056 4.5056 0 2.048-2.048 2.048-4.5056 4.5056-2.048 19.2512-4.5056 23.7568 0 0-2.048 6.5536-2.048 9.0112-2.048v4.096h2.048c2.048 0 0-2.048 0-4.5056h11.0592c0 2.048-2.048 4.5056-4.5056 4.5056 0 2.048 4.5056 2.048 4.5056 4.5056h-9.8304c4.608-2.048 2.1504-4.5056-2.3552-4.5056z" fill="#82ca13" p-id="1223"></path><path d="M454.144 205.4144c4.5056 0 6.5536-2.048 9.0112-4.5056-2.4576 2.4576-6.9632 0-9.0112 4.5056zM584.6016 217.6c0-4.5056 11.0592-4.5056 11.0592 0 0 0 0-2.048 2.048-2.048 2.048 4.5056 11.0592 9.0112 16.7936 6.5536v4.5056h-4.5056c0 2.048 2.048 2.048 2.048 2.048 2.048 0 0-4.5056 2.048-2.048 0 2.048 0 2.048 2.048 2.048-2.048 2.048-2.048 2.048-2.048 4.5056-6.5536 0-13.5168-2.048-13.5168-6.5536 4.5056-2.048 0 4.5056 4.5056 2.048 0-2.048-4.5056-4.5056-4.5056-6.5536-2.048 0 0 4.5056 0 6.5536-9.0112-2.048-19.2512-2.048-23.7568-11.0592-4.5056 4.5056-9.0112-2.048-16.7936 0v-11.0592c4.5056-2.048 2.048 2.048 6.5536 2.048-2.048 4.5056 0 4.5056 0 6.5536 11.0592 2.4576 22.528-7.2704 18.0224 2.4576zM638.3616 235.6224c9.0112-2.048 6.5536 4.5056 13.5168 4.5056 0 2.048-4.5056 6.5536 0 9.0112 0-2.048 2.048-4.5056 2.048-6.5536 4.5056-2.048 0 4.5056 4.5056 2.048-2.048 4.5056-2.048 2.048 0 6.5536-4.5056 0-6.5536 0-6.5536 2.048-4.5056-2.048-6.5536-4.5056-11.0592-6.5536 0-2.048 2.048-2.048 4.5056-4.5056-2.4576-2.048-4.5056-2.048-6.9632-6.5536-2.048 4.5056 4.5056 4.5056 2.048 9.0112-4.5056-2.048-9.0112-2.048-9.0112-6.5536-2.048 0-2.048 4.5056-6.5536 2.048 0-2.048-2.048-2.048 0-4.5056h4.5056c2.048-4.5056-2.048-2.048-2.048-6.5536 4.5056 0 6.5536 4.5056 11.0592 2.048v4.5056zM282.3168 272.7936c2.048 0 4.5056 0 4.5056-2.048h4.5056c2.048 0 0-4.5056 0-4.5056 4.5056-2.048 0 4.5056 4.5056 2.048 2.048-4.5056-4.5056 0-2.048-4.5056 4.5056 0 2.048-4.5056 6.5536-4.5056 0 6.5536-4.5056 9.0112-2.048 16.7936-6.5536 2.048-9.0112 9.0112-19.2512 11.0592 0 4.5056-4.5056 6.5536-6.5536 9.0112h-2.048c0-4.5056 4.5056-2.048 4.5056-6.5536 0-2.048-2.048 0-2.048 0-2.048 4.5056-4.5056 9.0112 0 13.5168-21.2992 16.7936-30.3104 41.2672-51.712 60.416 0-4.5056 0-4.5056 2.048-4.5056 0-2.048-4.5056 0-6.5536 0 2.048-4.5056 6.5536-4.5056 6.5536-11.0592 2.048-2.048 0 4.5056 0 4.5056 2.048-2.048 4.5056-4.5056 9.0112-4.5056v-2.048c0-2.048-2.048 0-4.5056 0-2.048-4.5056 2.048-4.5056 2.048-9.0112 6.5536 0 4.5056-9.0112 11.0592-6.5536v-6.5536c4.5056-2.048 0 4.5056 4.5056 2.048-6.5536-6.5536 6.5536-9.0112 4.5056-16.7936 4.5056 2.048 9.0112-13.5168 11.0592-4.5056 2.048 0 0-4.5056 0-6.5536 4.5056-2.048 4.5056-6.5536 11.0592-6.5536 2.048 2.048 0 6.5536 0 9.0112 6.656-13.312 12.3904-17.8176 10.3424-27.648zM694.4768 274.8416c9.0112-2.048 9.0112 13.5168 13.5168 6.5536 0 4.5056-2.048 9.0112-4.5056 11.0592 0-4.5056-4.5056-4.5056-9.0112-6.5536 0-2.048 2.048-4.5056 6.5536-4.5056-2.048-0.8192-4.096-0.8192-6.5536-6.5536-2.048 2.048 0 6.5536 0 6.5536h-4.5056 2.048c0.4096-0.8192 2.4576-3.2768 2.4576-6.5536z" fill="#82ca13" p-id="1224"></path><path d="M211.3536 373.248c0-4.5056-2.048-6.5536-2.048-9.0112 2.048 0 2.048-2.048 2.048-2.048h9.0112c0 6.5536-4.5056 4.5056 0 9.0112-9.0112 9.0112-9.0112 27.7504-19.2512 36.7616 2.048 6.5536-2.048 9.0112-2.048 11.0592-4.5056 0-2.048-4.5056-4.5056-2.048h-2.048c-2.048 2.048 0 9.0112 0 11.0592-2.048 0-2.048 2.048-2.048 2.048h-6.5536c4.5056-23.6544 13.5168-39.2192 21.2992-58.0608h6.5536v1.2288h-0.4096zM473.088 911.7696c0 2.048-6.5536 2.048-4.5056 9.0112h-4.5056c-0.9216-6.9632 6.9632-11.0592 9.0112-9.0112zM662.1184 247.9104c2.048 0 2.048 4.5056 4.5056 2.048v4.5056c6.5536-2.048 6.5536 2.048 11.0592 2.048v6.5536c-4.5056-2.048-2.048 2.048-4.5056 2.048s-4.5056-2.048-9.0112-2.048c-2.048-2.048 0-6.5536-2.048-6.5536 0-4.5056 4.5056-2.048 2.048-4.5056 0 0.4096-2.048 0.4096-2.048-4.096zM486.6048 678.912c4.5056 0 6.5536 2.048 6.5536 4.5056-4.096 0-4.096-2.048-6.5536-4.5056zM289.28 499.4048l7.8848 31.9488-17.7152 4.4032-3.8912-15.5648-120.32 29.696 3.8912 15.5648-17.1008 4.1984L134.144 537.6l70.4512-17.3056c-3.2768-4.3008-7.3728-9.8304-10.9568-13.824l16.7936-9.4208c4.9152 5.632 11.3664 13.1072 14.7456 17.8176l-1.2288 0.7168 65.3312-16.1792z m-59.0848 55.7056l57.9584-14.2336 22.016 88.576-17.3056 4.3008-2.1504-8.704-40.6528 10.0352 8.0896 32.6656-17.92 4.4032-8.0896-32.6656-40.7552 10.0352 2.3552 9.4208-16.7936 4.096-22.1184-89.2928 57.5488-14.1312-4.1984-16.896 17.92-4.4032 4.096 16.7936z m-54.9888 29.4912l4.3008 17.408 40.7552-10.0352-4.3008-17.408-40.7552 10.0352z m53.1456 39.7312l-4.4032-17.6128-40.7552 10.0352 4.4032 17.6128 40.7552-10.0352z m5.5296-54.1696l4.3008 17.408 40.6528-10.0352-4.3008-17.408-40.6528 10.0352z m52.9408 39.7312l-4.4032-17.6128-40.6528 10.0352 4.4032 17.6128 40.6528-10.0352zM395.776 554.0864c-6.7584 3.9936-13.5168 7.8848-20.2752 11.6736l12.0832 48.64c2.2528 8.9088 1.4336 13.824-3.3792 17.6128-4.7104 4.096-13.0048 6.5536-25.7024 9.6256-1.6384-4.096-5.8368-10.5472-8.9088-14.336 8.0896-1.7408 16.0768-3.7888 18.3296-4.3008 2.56-0.8192 3.2768-1.8432 2.6624-4.608l-10.8544-43.6224c-7.168 3.8912-14.0288 7.7824-20.2752 11.264l-8.8064-15.36c7.0656-3.4816 15.5648-8.192 24.7808-13.2096l-9.1136-36.5568-24.064 5.9392-3.9936-15.9744 24.064-5.9392-9.0112-36.1472 16.9984-4.1984 9.0112 36.1472 19.7632-4.9152 3.9936 15.9744-19.7632 4.9152 7.9872 32.256 18.432-10.0352 6.0416 15.1552z m53.0432 25.7024c1.8432 4.9152 4.7104 11.6736 6.7584 15.0528-28.4672 22.3232-33.4848 26.9312-35.6352 30.8224-2.56-3.8912-8.2944-10.1376-11.776-13.1072 2.4576-2.9696 5.0176-8.2944 3.072-16.1792l-33.5872-135.4752 17.3056-4.3008 13.824 55.7056 24.064-5.9392 3.9936 15.9744-24.064 5.9392 16.384 65.8432 19.6608-14.336z m47.2064 7.8848c3.3792-0.8192 2.6624-6.9632-2.2528-28.9792 4.8128 2.56 12.6976 3.9936 17.8176 3.8912 5.0176 26.7264 3.8912 37.888-10.1376 41.2672l-17.1008 4.1984c-14.7456 3.584-20.5824-1.024-25.6-21.0944l-34.0992-137.3184 17.5104-4.3008 15.0528 60.7232c6.4512-9.6256 12.5952-20.0704 16.5888-28.8768l15.6672 8.8064c-7.8848 13.0048-18.1248 28.0576-27.3408 39.6288l14.2336 57.1392c1.9456 7.7824 3.072 9.1136 6.9632 8.0896l12.6976-3.1744zM542.1056 468.992c-8.6016-6.9632-26.3168-16.896-39.7312-23.8592l9.4208-13.1072c13.0048 6.2464 30.9248 15.5648 39.7312 22.3232l-9.4208 14.6432z m27.648 84.3776c3.8912 1.2288 8.0896 3.1744 14.7456 5.2224 13.9264 4.3008 30.208 1.6384 50.5856-3.3792 21.0944-5.2224 49.664-14.0288 68.1984-20.8896-0.7168 4.9152-1.4336 13.312-0.512 17.8176-13.2096 4.1984-44.6464 13.0048-64.512 17.92-22.7328 5.632-38.2976 7.2704-53.248 2.8672-8.4992-2.4576-16.1792-6.8608-20.2752-5.8368-5.9392 1.4336-12.4928 14.336-18.2272 28.3648l-14.336-11.776c6.4512-11.4688 13.7216-21.2992 20.8896-26.624l-12.0832-48.8448-24.9856 6.144-3.9936-15.9744 41.5744-10.24 16.1792 65.2288z m35.9424-1.9456l-16.1792 3.9936-23.6544-95.232 46.8992-11.5712c-11.4688-2.2528-24.4736-4.4032-35.2256-5.7344l8.8064-12.1856c8.4992 0.7168 18.432 1.9456 28.3648 3.4816 6.3488-5.3248 12.5952-12.1856 17.8176-18.3296l-72.4992 17.8176-3.2768-13.312 88.1664-21.7088 3.072-1.7408 12.4928 5.632c-7.3728 11.8784-17.8176 24.4736-29.184 35.1232 5.12 0.9216 9.6256 1.9456 13.4144 3.1744l24.064-5.9392 19.6608 79.2576c1.9456 7.7824 1.4336 12.0832-3.2768 15.5648-4.8128 3.7888-12.5952 5.8368-24.2688 8.704-1.6384-4.096-5.12-9.4208-8.0896-12.8 7.68-1.536 14.9504-3.4816 16.9984-3.9936 2.2528-0.512 2.7648-1.4336 2.2528-3.6864l-3.2768-13.2096-27.7504 6.8608 7.0656 28.5696-15.6672 3.8912-7.0656-28.5696-26.8288 6.656 7.168 29.2864z m-20.48-82.2272l3.2768 13.312 26.8288-6.656-3.2768-13.312-26.8288 6.656z m36.7616 33.28l-3.4816-13.9264-26.8288 6.656 3.4816 13.9264 26.8288-6.656zM627.712 458.752l3.2768 13.312 27.7504-6.8608-3.2768-13.312L627.712 458.752z m37.6832 33.0752l-3.4816-13.9264-27.7504 6.8608 3.4816 13.9264 27.7504-6.8608zM725.2992 421.0688c-7.2704-7.68-22.528-18.1248-34.9184-25.2928l11.1616-12.1856c12.5952 6.7584 27.8528 16.5888 35.6352 23.9616l-11.8784 13.5168z m30.6176 82.5344c3.8912 1.4336 8.2944 3.2768 14.6432 5.0176 13.7216 4.3008 30.6176 1.536 51.0976-3.584 20.48-5.0176 48.9472-13.824 66.4576-20.48-1.024 5.4272-1.6384 14.9504-0.7168 20.2752-12.6976 3.8912-44.032 12.8-62.1568 17.3056-23.1424 5.7344-39.1168 7.4752-54.3744 2.9696-9.1136-2.6624-16.7936-7.2704-20.8896-6.2464-5.7344 1.4336-11.4688 15.0528-16.6912 28.9792L716.8 533.9136c6.8608-12.288 14.4384-22.2208 21.8112-27.648l-11.1616-44.9536-23.6544 5.8368-3.9936-16.1792 40.6528-10.0352 15.4624 62.6688z m61.7472-102.5024l-70.0416 17.3056-4.096-16.2816 70.0416-17.3056-7.7824-31.5392 17.7152-4.4032 7.7824 31.5392 24.2688-5.9392 4.096 16.2816-24.2688 5.9392 16.7936 67.584c2.6624 10.752 1.2288 16.2816-5.3248 20.5824-6.3488 4.5056-18.1248 7.9872-35.5328 12.288-1.9456-4.8128-6.7584-11.9808-10.3424-16.1792 12.8-2.56 26.0096-5.8368 29.696-6.9632 3.4816-1.024 4.608-2.3552 3.7888-5.632l-16.7936-67.2768z m-46.08 23.7568c11.9808 8.704 27.5456 20.992 35.1232 29.3888l-12.288 12.4928c-7.4752-8.3968-22.7328-21.6064-34.7136-30.8224l11.8784-11.0592z" fill="#82ca13" p-id="1225"></path></svg>