<?xml version="1.0" standalone="no"?><!DOCTYPE svg PUBLIC "-//W3C//DTD SVG 1.1//EN" "http://www.w3.org/Graphics/SVG/1.1/DTD/svg11.dtd"><svg t="1748421421220" class="icon" viewBox="0 0 1232 1024" version="1.1" xmlns="http://www.w3.org/2000/svg" p-id="892" xmlns:xlink="http://www.w3.org/1999/xlink" width="240.625" height="200"><path d="M54.368452 641.839648v-9.487112c-2.432593 0-2.432593 6.93289-5.473334 2.432593 5.473334-28.826226-12.406224-58.74712-17.879558-87.086828-5.473334-2.432593 0 5.473334-5.473334 2.432593 0-5.473334 6.93289-14.960447 0-16.420002V546.117116c-2.432593 0-2.432593 2.432593-5.473334 2.432593 0-5.473334-2.432593-5.473334-5.473334-5.473334-2.432593 5.473334-2.432593 9.487112-6.93289 5.473334 5.473334 2.432593 5.473334 5.473334 5.473334 12.406224 2.432593 2.432593 6.93289 0 6.93289 2.432593 0 5.473334-6.93289 0-5.473334 5.473334 9.487112 14.960447 6.93289 40.867561 21.893336 50.233044-5.473334 6.93289 2.432593 27.366671 6.93289 31.380449 0 2.432593-2.432593 2.432593-2.432593 5.473334 12.406224 43.786673 24.447559 87.086827 36.853783 130.995131 2.432593 2.432593 6.93289 0 6.93289 2.432593-2.432593 2.554223 0 5.473334-2.432593 5.473334 0-1.459556 0-4.013778-2.432593-4.013779 0 9.487112 0 16.420002 6.93289 18.974225-6.93289 5.473334 0 12.406224 0 16.420003 54.733341-12.406224 24.447559-2.432593 77.721345-14.960447l21.893336-9.487112c12.406224-5.473334 27.366671-9.487112 42.327117-12.406224 0-5.473334-9.487112-5.473334-5.473334-9.487113 2.432593 2.432593 5.473334 5.473334 5.473334 6.93289 70.666825-12.406224 134.887279-33.813042 203.121511-50.233044 2.432593-2.432593 0-5.473334 2.432593-5.473335 9.487112 5.473334 18.974225-2.432593 29.920893-2.432592 2.432593-2.432593 0-5.473334 2.432593-5.473335 14.960447 5.473334 49.260007-12.406224 76.14016-14.960446 2.432593-2.432593-5.473334-5.473334 0-5.473334-2.432593 5.473334 5.473334 2.432593 6.932889 2.432593 2.432593-2.432593 2.432593-9.487112 6.93289-14.960447 2.432593 0 2.432593 9.487112 0 9.487112 14.960447 2.432593 18.974225-5.473334 31.380449-5.473334 2.432593-5.473334-6.93289 0-5.473334-5.473334-5.473334-2.432593 0 5.473334-5.473334 2.432593-2.432593-5.473334 5.473334 0 2.432593-5.473334-6.93289 2.432593-12.406224 6.93289-17.879558 12.406224 2.432593-9.487112 2.432593-9.487112 2.432593-14.960447 2.432593 2.432593 6.93289 2.432593 9.487112 5.473335 0-6.93289 5.473334-9.487112 9.487113-12.406224 2.432593 9.487112 12.406224 5.473334 21.893336 5.473334-2.432593-5.473334 2.432593-5.473334 2.432593-2.432593-2.432593-2.432593-2.432593-6.93289-6.93289-6.93289 0 2.432593 0 2.432593-2.432593 2.432593-2.432593 5.473334 5.473334 0 2.432593 5.473334-2.432593-2.432593-6.93289 0-6.93289-2.432593s2.432593-2.432593 2.432593-5.473334c-12.406224 2.432593-21.893337 6.93289-36.853783 6.93289 2.432593 9.487112-12.406224 2.432593-5.473334 9.487112-5.473334 0-9.487112-2.432593-5.473334-5.473334-6.93289 0-17.879558 2.432593-12.406224 6.93289 0-2.432593 0-2.432593 2.432593-2.432593-2.432593 2.432593 0 6.93289-2.432593 6.93289-2.432593-2.554223-5.473334-2.554223-6.93289-5.473334 0-2.432593 2.432593-2.432593 2.432593-5.473334-6.93289-2.432593-9.487112 2.432593-12.406224 5.473334-9.487112-5.473334-27.366671 6.93289-42.327117 6.93289-2.432593 2.432593 0 5.473334-2.432593 5.473334-5.473334 2.432593-6.93289-2.432593-9.487113-2.432593 0 6.93289-9.487112 6.93289-12.406224 12.406224-2.432593-5.473334 2.432593-2.432593 2.432593-6.93289-5.473334 2.432593-9.487112 6.93289-14.960446 2.432593-2.432593 5.473334-9.487112 5.473334-17.879558 5.473334-27.366671 6.93289-55.828008 16.420002-88.668013 21.893337-5.473334 2.432593 0 5.473334-2.432593 6.932889 0-2.432593-2.432593-5.473334-5.473334-5.473334-2.432593 2.432593 0 5.473334-2.432593 5.473334 0-2.432593-2.432593-2.432593-6.93289-2.432592-90.127569 27.366671-110.561349 24.447559-203.121511 50.233044 2.432593 0 2.432593 0 2.432593 2.554222-6.93289 2.432593-5.473334-5.473334-12.406224-2.554222-2.432593 5.473334-5.473334 9.487112-6.93289 14.960446-9.487112-6.93289 0-16.420002-5.473334-27.36667-2.432593 2.432593-6.93289 6.93289-9.487113 2.432593 0-5.473334 5.473334-2.432593 6.93289-2.432593v-9.487113c-2.432593 0-2.432593 2.432593-5.473334 2.432593 9.487112-9.487112-2.432593-23.352892-2.432593-43.786673-2.432593-2.432593-5.473334 0-5.473334-2.432593s-2.432593-5.473334-2.432593-2.432593c2.432593 9.487112-6.93289 9.487112-6.93289 16.420003-2.432593 0-5.473334 0-5.473334-2.432593 6.93289-2.432593 5.473334-16.420002 12.406224-21.893337-1.459556-21.893337-6.93289-43.786673-18.974225-61.301342v-5.473334c1.459556 0 2.432593-1.459556 2.432593-4.013778 1.459556-0.608148-0.12163-0.608148-1.094667-0.608149zM29.434375 516.317852c-1.459556 1.459556-4.013778 1.459556-8.027557 1.459556V510.844518c-5.473334 0 2.432593 6.93289-5.473334 5.473334V510.844518c-5.473334 0-5.473334-2.432593-9.487113-2.432593-5.473334 5.473334-2.432593 12.406224-2.432593 18.974225h5.473334c2.432593 0 0-6.93289 2.432593-9.487112 5.473334-2.432593 5.473334 2.432593 6.93289 2.432593 0 9.487112 2.432593 14.960447 2.432593 21.893336 0 0-2.432593 0-2.432593-2.432593h-1.459555c0-5.473334 5.473334-2.432593 2.432592-6.93289 2.432593 5.473334 2.432593 2.432593-2.432592 2.432593-2.432593 0 0 2.432593-2.432593 5.473335h-8.027557c0-16.420002-6.93289-20.433781-6.93289-35.394228 5.473334 0 5.473334 2.432593 6.93289 2.432593 2.432593 0 0-2.432593 2.432593-5.473334 9.487112 2.432593 14.960447-6.93289 21.893336 0 2.432593-2.432593 6.93289-2.432593 6.93289-6.93289 5.473334-2.432593 5.473334 2.432593 5.473334 5.473334 0-9.487112 9.487112-5.473334 18.974225-9.487112-2.432593 5.473334 5.473334 2.432593 2.432593 9.487112h5.473334v-5.473334c0-5.473334-6.93289 0-5.473334-2.432593 2.554223-5.473334 12.406224-12.406224 17.879558-5.473334 2.432593 0 0-2.432593 2.432593-5.473334 2.554223 0 2.554223 2.432593 5.473334 2.432593 14.960447-9.487112 42.327117-9.487112 58.74712-16.420002l-9.487112 5.473334c18.974225-5.473334-2.432593 0 18.974225-2.432593-2.432593 6.93289 5.473334 5.473334 6.932889 5.473334 0-5.473334-5.473334-2.432593-2.432592-6.93289 24.447559-2.432593 43.786673-16.420002 68.234232-14.960447 2.432593 0 0-2.432593 2.432593-5.473334 17.879558-5.473334 36.853783-9.487112 54.733341-14.960446 24.447559-2.432593 46.340896-12.406224 68.234232-16.420003 54.733341-12.406224 107.520608-27.366671 156.902245-40.867561 14.960447 0 24.447559-9.487112 39.286376-5.473334 2.432593 0 0-2.432593 2.432593-5.473334 2.432593 0 9.487112-2.432593 6.93289 2.432592 0-2.432593 5.473334-2.432593 5.473334-5.473334 122.967573-31.380449 245.448628-65.68001 369.510868-97.060458 5.473334 0 2.432593 6.93289 6.93289 5.473334 2.432593-5.473334-5.473334-2.432593-2.432593-6.93289h2.432593v-2.432593c1.459556 0 4.013778 0 5.473334 1.459556 8.027557-1.459556 14.960447-2.432593 23.352892-5.473334 1.459556-1.459556 4.013778-2.432593 6.93289-1.459556 8.027557-2.432593 17.879558-4.013778 25.907115-6.93289l21.893337-6.93289c29.920893-2.432593 49.260007-12.406224 73.707566-16.420002-2.432593 5.473334 2.432593 5.473334 5.473334 6.93289 5.473334-2.432593-5.473334-2.432593-2.432593-6.93289 31.380449-6.93289 5.473334-5.473334 36.853783-9.487113 0 12.406224 6.93289 18.974225 2.432593 27.366671 0 2.432593 2.432593 0 5.473334 2.432593 0 16.420002 14.960447 33.813042 6.93289 49.260007 6.93289 6.93289 6.93289 24.447559 12.406224 33.813042-5.473334 0-2.432593-5.473334-6.93289-2.432593 12.406224 6.93289 17.879558 24.447559 14.960447 40.867562 5.473334 0-2.432593-9.487112 5.473334-6.93289-2.432593 14.960447 12.406224 27.366671 5.473334 38.313338 14.960447 16.420002 9.487112 50.354674 24.447559 68.234233 2.432593 28.826226 12.406224 46.340896 17.879558 70.666825-55.828008 14.960447-55.828008 18.974225-110.561349 33.813042h-31.380449c-10.946668-2.432593-10.946668 0-17.879558 0 2.432593-5.473334-5.473334-2.432593-5.473334-6.93289-2.432593 0-2.432593 6.93289 2.432593 5.473334-18.974225 9.487112-42.327117 16.420002-66.774677 18.974225 0-5.473334-2.432593-6.93289-6.93289-6.93289 0 2.432593 5.473334 5.473334 2.432593 9.487112-21.893337 2.432593-46.340896 18.974225-68.234232 12.406224-2.432593 0 0 2.432593-2.432593 5.473334-86.11379 24.447559-174.781803 46.340896-259.436037 70.666826-5.473334 0-2.432593-5.473334-5.473334-5.473335s0 5.473334-2.432593 6.93289c-18.974225 2.432593-33.813042 9.487112-49.260007 6.93289 0-5.473334 9.487112 0 6.93289-6.93289 5.473334 0 5.473334 2.432593 6.932889 2.432593 2.432593 0 0-6.93289 5.473335-5.473334 0-2.432593-2.432593-6.93289-2.432593-12.406224 2.432593 5.473334 5.473334 2.432593 5.473334-2.432593 5.473334 0 9.487112 0 9.487112 2.432593 2.432593 0 0-2.432593 2.432593-5.473334 36.853783-6.93289 70.666825-18.974225 107.520608-28.826226 14.960447 0 27.366671-5.473334 39.286376-12.406224 6.93289 5.473334 17.879558-5.473334 29.920894-5.473335 2.432593 5.473334-2.432593 2.432593-5.473335 5.473335 5.473334 2.432593 6.93289-6.93289 14.960447-12.406224 5.473334-2.432593 9.487112 2.432593 12.406224-2.432593 0 2.432593-2.432593 6.93289 2.432593 6.932889 2.432593 0 0-5.473334 2.432593-6.932889 31.380449-6.93289 58.74712-18.974225 98.155125-21.893337 9.487112-9.487112 31.380449-9.487112 42.327118-16.420002 12.406224 5.473334 29.920893-9.487112 49.260007-9.487113 0 6.93289 6.93289 6.93289 6.93289 12.406224 2.554223-5.473334-9.487112-6.93289-6.93289-14.960446 6.93289-2.432593 5.473334 5.473334 6.93289 5.473334 2.554223 0 0-5.473334 2.554222-6.93289 6.93289 2.432593 14.960447-5.473334 14.960447 0 12.406224-5.473334 33.813042-12.406224 46.340895-9.487113 2.432593-5.473334-5.473334 0-2.432593-5.473334 2.432593 0 9.487112 2.432593 9.487113-2.432593 17.879558 2.432593-6.93289 2.432593 12.406224-2.432593 2.432593 5.473334-5.473334 0-2.432593 5.473335 5.473334 0 5.473334-6.93289 6.93289-6.93289 29.920893 2.432593 51.81423-21.893337 73.707566-12.406224 5.473334-2.432593 6.93289-12.406224 0-14.960447-5.473334 0 2.432593 9.487112-5.473334 6.93289 0-31.380449-21.893337-55.828008-14.960447-84.654235 5.473334-2.554223 0 5.473334 5.473334 5.473335 5.473334-2.432593-2.432593-5.473334-2.432592-6.93289 2.432593 0 2.432593 0 2.432592-2.432593s-5.473334 0-6.932889-2.432593c-2.432593 0 0 5.473334-2.432593 6.93289-9.487112-21.893337-14.960447-50.233044-23.352893-76.14016 0-1.459556-1.459556-1.459556-1.459555-2.432592 0-1.459556-1.459556-2.432593-1.459556-4.013779 0 0-1.459556 0-1.459556 1.459556-1.459556-1.459556 0-2.432593 0-2.432593-1.459556-2.432593-1.459556-4.013778-2.432593-6.93289-2.432593-5.473334 2.432593-6.93289 2.432593-9.487112s-2.432593 0-5.473334-2.432593c-6.93289-28.826226-14.960447-53.273785-21.893337-81.613494 6.93289 5.473334 5.473334-6.93289 12.406224-6.932889-5.473334 0-5.473334-2.432593-6.932889-6.93289-2.432593 0 0 6.93289-2.432593 12.406224-9.487112 2.432593-2.432593-9.487112-9.487113-12.406224 0-2.432593 6.93289 0 6.93289 0 2.432593-2.432593 0-6.93289 5.473334-6.93289l-5.473334-5.473334c-5.473334 0 0 6.93289-2.432593 5.473334-5.473334 0 0-2.432593-2.432593-5.473334-6.93289-2.432593-6.93289 5.473334-12.406224 5.473334 0 5.473334 5.473334 5.473334 5.473334 9.487112-6.93289 5.473334-17.879558 6.93289-24.447559 12.406224-5.473334 2.432593 0-5.473334-5.473334-5.473334-2.432593 2.432593 51.81423-5.473334 43.786673-5.473334v-9.487113h-5.473334c-2.432593 2.432593 0 9.487112-2.432593 12.406225-54.733341 12.406224-102.047274 28.826226-156.902245 38.313338v-9.487112c-2.432593 0-2.432593 2.432593-5.473334 2.432593 2.432593 2.432593 5.473334 5.473334 2.432593 12.406224-95.600903 24.447559-193.756028 49.260007-286.31619 77.721344-14.960447-2.432593-24.447559 12.406224-33.813042 2.432593-2.432593 2.432593-2.432593 5.473334-5.473334 6.93289-5.473334-4.013778-13.500891-1.459556-18.974225 1.459556-2.432593 1.459556-5.473334 2.432593-6.93289 2.432593v-6.93289h-6.93289c2.554223 5.473334 2.554223 2.432593 0 6.93289-5.473334-5.473334-6.93289 2.432593-17.879558 0-2.432593 0 0 5.473334-2.432593 6.93289-9.487112-5.473334 6.93289-12.406224 0-14.960447h5.473335v-5.473334c-5.473334 0-2.432593 5.473334-6.93289 2.432593-2.432593 2.432593-2.432593 6.93289-6.93289 6.93289 2.432593-2.432593 5.473334-2.432593 5.473334-6.93289-2.432593 2.432593-6.93289 5.473334-12.406224 5.473334 6.93289 0 2.432593 9.487112 12.406224 6.93289v6.93289c-5.473334-2.432593-5.473334-12.406224-12.406224-12.406224 0 5.473334-5.473334 6.93289-6.93289 9.487112 2.432593 5.473334 5.473334-5.473334 9.487112-2.432592v5.473334c-5.473334 0-6.93289 0-9.487112 2.432593-2.432593-5.473334-9.487112-2.432593-12.406224-9.487113-5.473334 2.432593 0 5.473334 0 6.93289-2.432593-2.432593-6.93289-6.93289-6.93289-14.960447-5.473334-2.432593-5.473334 2.432593-6.93289 5.473335 2.432593 2.432593 2.432593 5.473334 6.93289 5.473334v9.487112c5.473334 2.432593 0-5.473334 5.473334-2.432593 2.432593 5.473334-5.473334 0-2.432593 5.473334C447.353842 412.567763 351.75294 437.380211 259.071149 463.287326c-12.406224 0-18.974225 5.473334-29.920894 6.93289-2.432593 0-2.432593-2.432593-2.432593-5.473334h-8.027556c-2.432593 5.473334 5.473334 2.432593 2.432593 6.93289-6.93289-2.432593-14.960447 6.93289-18.974225 0-5.473334 9.487112-21.893337 12.406224-31.380449 5.473334 0 5.473334 5.473334 2.432593 2.432593 6.93289-6.93289 2.432593-2.432593-6.93289-9.487113-5.473334 0 2.432593 2.432593 2.432593 2.432593 5.473334h-4.013778c-1.459556 1.459556-4.013778 1.459556-6.93289 1.459556 1.459556-1.459556 1.459556-2.554223 2.432593-4.013779-1.459556 0-4.013778 0-2.432593 4.013779 4.013778-6.93289 4.013778-5.473334 4.013778-5.473334-5.473334 0-8.027557 0-12.406224 1.459555v1.459556h-2.432593c-2.554223 1.459556-5.473334 1.459556-9.487112 2.554223 0-2.554223 2.432593-2.554223 2.432593-5.473334-5.473334 0-6.93289 2.432593-6.93289 6.932889-2.432593 0-2.432593 0-2.432593-2.432592-2.432593 0 0 2.432593-2.432593 5.473334-5.473334-5.473334 21.893337-16.420002 17.879558-12.406224v-5.473334c-5.473334 0-5.473334 5.473334-6.93289 6.932889 2.432593 5.473334 2.432593-5.473334 6.93289-2.432593-1.459556 1.459556-1.459556 2.432593 0 4.013779v1.459556c-14.960447 6.93289-18.974225 18.974225-29.920893 12.406224-5.473334 0 2.432593 2.432593 0 5.473334-6.93289 2.432593-17.879558 2.432593-21.893337 5.473334 0-5.473334 0-5.473334 2.432593-6.93289-5.473334-2.432593-9.487112-9.487112-14.960446-6.93289 2.432593 5.473334 5.473334 5.473334 12.406224 5.473334-2.432593 5.473334-2.432593 9.487112-6.93289 12.406224-5.473334 0-2.432593-5.473334-5.473334-5.473334-2.432593 2.432593-2.432593 5.473334-5.473334 6.93289-9.487112 0-17.879558 2.432593-24.44756 5.473334 0-2.432593 2.432593-6.93289-2.432592-6.93289-2.432593 0 0 5.473334-2.432593 6.93289 0 5.473334-2.432593-2.432593-2.432593-5.473334-2.432593 1.459556-4.013778 2.432593-5.473334 4.013778v4.013779c-3.892149-1.216296-5.351704-1.216296-6.93289-2.675853z m128.562537-36.853783c-1.581185 0-1.581185 0 0 0l-1.459556 2.432593c0 1.459556-1.459556 1.459556-1.459556 1.459556 1.459556 1.459556 2.432593 1.459556 4.013779 1.459556l-1.094667-5.351705z m347.495902 508.898444c-5.473334 2.432593-8.027557-2.432593-10.946668-2.432593 5.473334-8.027557 16.420002-2.432593 0-8.027556 0 8.027557-2.432593 10.946668-2.432593 16.420002 0 0-8.027557 2.432593-5.473334 2.432593 8.027557-2.432593 8.027557 5.473334 16.420002 2.432593 0-5.351704 0-7.784297 2.432593-10.825039 0 5.473334 1.459556 9.487112-2.432593 10.946669 5.473334 2.554223 5.473334 8.027557 13.500891 5.473334 2.432593-5.473334-5.473334 0-2.432593-5.473334 8.027557 0 25.907115-5.473334 20.433781 5.473334v-5.473334c-5.473334 2.554223-5.473334 5.473334-8.027557 8.027556 10.946668 0 25.907115 2.432593 28.826226-5.473334v7.905927c2.432593 0 2.432593-10.946668 2.432593-16.420002 5.473334-2.432593 2.432593 2.432593 2.432593 0-2.432593-5.473334-2.432593-2.432593 0-8.027557-8.027557-2.432593-16.420002-2.432593-28.826226 0 0-2.432593-5.473334-5.473334-8.027557-5.473334 0 2.432593 2.432593 5.473334 0 5.473334s-2.432593-2.432593-2.432593-5.473334c-5.473334 2.432593-10.946668 2.432593-13.500891 0-2.919112 1.581185-2.919112 6.081482-1.946074 8.514075z m-44.75971 1.459556c4.013778 1.459556 6.93289 1.459556 10.946668 2.432593-2.554223-5.473334 2.432593-8.027557 2.432593-10.946668 2.432593 0-2.432593 8.027557 2.432593 5.473334 2.432593-5.473334-2.432593-5.473334-2.432593-8.027557h5.473334v-7.905927c-5.473334 0-7.905927 2.432593-10.946668 2.432593 2.432593-2.432593 0-2.432593 0-5.473334-23.352892-2.432593-42.327117-10.946668-62.760898-20.433781v2.432593c0-5.473334-8.027557 0-5.473334-5.473334-5.473334 0-8.027557 2.432593-10.946669-2.432593 0 0 2.432593 5.473334 0 5.473334 0 0-2.432593 2.432593-2.432593 0s5.473334 0 2.432593-5.473334c-5.473334-5.473334-10.946668-10.946668-23.352892-10.946668 0 2.432593-2.432593 5.473334-5.473334 5.473334 0-2.432593 5.473334-2.432593 2.432593-7.905927-8.027557-2.432593-13.500891-10.946668-23.352892-13.500891l-5.473334 5.473334c-2.432593-2.432593-5.473334-2.432593-8.027557-5.473334 2.432593-10.946668-13.500891-16.420002-25.907115-20.433781 2.432593-7.905927-8.027557-2.432593-5.473334-10.946668-2.432593-2.432593-2.432593 2.432593-5.473334 2.432593 0-2.432593-5.473334 0-2.432593-5.473334-2.432593-2.432593-2.432593 2.432593-5.473334 2.432593 2.432593 0 5.473334-2.432593 5.473334 0-2.432593 5.473334 0 13.500891-5.473334 13.500891 2.432593-5.473334-5.473334-2.432593-5.473334-5.473334v-4.986816h5.473334c-5.473334-2.432593-5.473334-8.027557 0-10.946668 0 2.432593 0 2.432593 0 0 0-5.473334-2.432593 2.432593-8.027557 5.473334-2.432593 2.432593 5.473334 2.432593 0 5.473334 0 0 0-2.432593-2.432593-2.432593-2.432593 2.432593-2.432593 8.027557-2.432593 13.500891 8.027557 0 8.027557 5.473334 13.500891 7.905927 0-2.432593 0-5.473334 2.432593-5.473334v8.027557c13.500891 8.027557 28.826226 20.433781 44.75971 28.826226 2.432593-10.946668 10.946668 5.473334 16.420002-2.432593 0 2.432593 2.432593 2.432593 2.432593 5.473334-5.473334 0-5.473334 2.432593-5.473334 8.027557 10.946668-2.432593 13.500891 2.432593 20.433781 8.027557 2.432593-2.432593-5.473334-5.473334 0-8.027557 2.432593 2.432593 2.432593 5.473334 2.432593 10.946668 10.946668 2.432593 20.433781 5.473334 31.380449 10.946668 2.432593-5.473334-5.473334-5.473334-5.473334-10.946668 5.473334-2.432593 0 5.473334 5.473334 2.432593 2.432593-2.432593 2.432593-5.473334 2.432593-10.946668 2.432593 2.432593 10.946668 8.027557 5.473334 13.500891 0 0 0-2.554223-2.432593-2.554223 0 5.473334 2.432593 8.027557 2.432593 10.946668 10.946668-2.432593 10.946668 2.432593 20.433781 2.432593 0-2.432593 2.432593-5.473334 2.432593-8.027556 0 0 2.432593 2.432593 2.432593 8.027556h8.027556c-2.432593 5.473334 0 5.473334 0 7.905927 6.93289 1.459556 12.406224 2.432593 17.879558 5.473334 3.162371 2.189334 3.162371 2.189334 4.743557 2.189334z m337.035752-160.794394l7.905927-8.027556c2.432593-2.432593-5.473334 2.432593-2.432593-2.432593 8.027557 2.432593 10.946668 0 10.946669-5.473334 2.554223 0 0 2.432593 0 5.473334 5.473334 0 2.554223-8.027557 13.50089-5.473334 2.432593-2.432593-5.473334-5.473334 0-8.027557 2.432593 2.432593 4.013778 2.432593 5.473335 2.432593v-1.459556l5.473334-5.473334h2.432593v-2.432593c1.459556 0 2.432593-1.459556 5.473334 0v-5.473334c13.500891-5.473334 20.433781-20.433781 33.813042-28.826226 0-10.946668 10.946668-10.946668 10.946668-23.352893h8.027557c0-5.473334 5.473334-13.500891 0-20.43378 8.027557 2.432593 10.946668-2.432593 13.50089-5.473335 20.433781-36.853783 33.813042-62.760898 44.759711-107.520608-7.905927-2.432593-7.905927 8.027557-16.420003 5.473334-10.946668 50.233044-25.907115 73.707566-50.354674 107.520609 0 5.473334 2.554223 16.420002 0 20.43378-2.432593-2.432593-5.473334-2.432593-10.946668-2.432593-23.352892 28.826226-47.800451 55.828008-79.1809 76.14016v2.432592c-10.946668-2.432593-20.433781 5.473334-25.907115 13.500891-20.433781 2.432593-33.813042 20.433781-57.287564 23.352893 0 2.432593 2.432593 5.473334 0 5.473334-5.473334-5.473334-20.433781 0-23.352892 8.027556-2.432593 0 2.432593-8.027557-2.432593-5.473334-7.905927 5.473334-23.352892 5.473334-28.826227 10.946669-2.432593-5.473334-8.027557 0-10.946668 2.432593-16.420002-5.473334-39.286376 5.473334-62.760898 2.432592 0 0 0 2.432593-2.432593 2.432593 0-2.432593 2.432593-2.432593 2.432593-2.432593-16.420002 0-28.826226-2.432593-39.286376 2.432593v-5.473334c-8.027557 0-13.500891 0-20.433781-2.432593-5.473334 2.432593-5.473334 5.473334-5.473334 8.027557 0-2.432593-2.432593-2.432593-2.432593-2.432593 2.432593 0 2.432593-2.432593 2.432593-5.473334-8.027557 0-13.500891-2.432593-20.43378-5.473334 0 2.554223 2.432593 5.473334 0 5.473334-5.473334-5.473334-13.500891-8.027557-20.433781-10.946668 0 2.432593 2.432593 5.473334 0 5.473334 0 0-2.432593 2.554223-2.432593 0 0 0 2.432593 0 2.432593-2.432593-8.027557 0-13.500891-2.432593-23.352892-5.473334-2.432593 0 0 5.473334-2.432593 5.473334 0 0-2.432593 2.432593-2.432593 0 2.432593 0 2.432593 0 2.432593-5.473334-5.473334-2.432593-10.946668 2.432593-16.420003 0 0-2.432593 7.905927 2.432593 5.473334-2.432593-16.420002-2.432593-23.352892-16.420002-39.286376-20.433781 0 2.432593-2.432593 5.473334-5.473334 5.473334-2.432593-5.473334 2.432593-5.473334 2.432593-7.905927-20.433781-10.946668-36.853783-25.907115-53.273785-36.853783 0 2.432593 0 5.473334-5.473335 5.473334-2.432593 5.473334 5.473334 0 2.432593 5.473334 2.432593 0 0-5.473334 5.473335-5.473334 2.432593 5.473334-5.473334 5.473334-2.432593 10.946668 5.473334-2.432593 5.473334 2.432593 8.027556 2.432593 0-5.473334 2.432593-8.027557 5.473334-10.946668-2.432593 5.473334 0 8.027557 0 10.946668h-5.473334c2.432593 5.473334 7.905927 7.905927 13.379262 10.946669 2.554223-5.473334-5.473334 0-2.432593-5.473335h5.473334c0 5.473334 2.432593 8.027557 2.432593 10.946669 2.432593 0 2.432593-2.432593 2.432593-2.432593 5.473334 7.905927 13.500891 16.420002 31.380449 16.420002-2.432593 2.432593 0 2.432593 0 5.473334 5.473334 0 8.027557 2.432593 10.946668 2.432593 0-2.432593 5.473334-5.473334 8.027557-2.432593-2.432593 0-2.432593 2.432593-2.432593 7.905927 5.473334 0 10.946668 0 13.50089 5.473334 5.473334 2.432593 0-5.473334 5.473335-2.432592-2.432593 5.473334 5.473334 0 2.432593 5.473334 25.907115 5.473334 57.287564 23.352892 84.654234 16.420002 2.432593 0 0 5.473334 5.473334 5.473334s2.432593-5.473334 8.027557-5.473334v5.473334c8.027557-2.432593 16.420002 0 25.907115 2.432593-2.432593-5.473334 2.432593-5.473334 2.432593-8.027557-2.432593 0-5.473334 5.473334-8.027557 0 2.432593-2.432593 5.473334-2.432593 8.027557-5.473334 0 2.432593 5.473334 0 5.473334 2.432593v2.432593c-5.473334 0-5.473334 0-5.473334 5.473334 16.420002 0 31.380449-2.432593 53.273785-2.432593 0-2.432593-2.432593-5.473334 0-5.473334v5.473334c5.473334-5.473334 20.433781-2.432593 25.907115-8.027556 0 0 0 2.432593 2.432593 2.432593 23.352892-8.027557 50.233044-10.946668 68.234232-25.907115 8.027557 0 23.352892-2.432593 25.907115-10.946669 0 0 0 2.432593 2.432593 2.432593 17.757928-2.310963 31.258819-7.784297 43.665043-17.27141-1.459556 0.973037 0 0 0 0z m-202.148474 170.281507c16.420002-1.459556 28.826226-4.013778 36.853784 0 9.487112-1.459556 20.433781-2.432593 29.920893-5.473335-1.459556 1.459556-1.459556 2.432593-1.459556 5.473335h5.473334c0-2.432593 0-5.473334 1.459556-6.93289 2.432593-1.459556 5.473334-2.432593 8.027557-4.013779 2.432593 2.432593-2.432593 2.432593-2.432593 5.473334 8.027557-2.432593 20.433781-2.432593 23.352892-7.905927 2.432593 0 2.432593 0 2.432593 2.432593 5.473334 0 5.473334-5.473334 10.946668-5.473334 0 2.432593 0 5.473334 2.432593 5.473334 5.473334-2.432593 8.027557-5.473334 16.420002-5.473334 0-2.432593-2.432593-8.027557 0-8.027556 2.432593 8.027557 10.946668 2.432593 16.420003 2.432592 0-1.459556-4.013778-4.013778-4.013779-5.473334h-1.459555v-8.027556c5.473334-2.432593 5.473334 2.432593 10.946668 2.432593 0 4.013778-1.459556 6.93289-4.013778 8.027556 4.013778-1.459556 8.027557-1.459556 12.406224-2.432593 0 1.459556 0 1.459556 2.432593 0v-1.459555c9.487112-2.432593 18.974225-6.93289 28.826226-10.946669 1.459556 2.432593 2.432593 2.432593 5.473334 1.459556v-5.473334c9.487112-4.013778 18.974225-9.487112 28.826226-14.960447v1.459556h8.027557c0-2.432593 2.432593-8.027557 0-5.473334-1.459556 1.459556-1.459556 1.459556-2.432593 1.459556 2.432593-1.459556 5.473334-2.432593 8.027557-4.013779 0-2.432593 0-2.432593 0 0 1.459556 0 2.432593-1.459556 4.013778-2.432593 4.013778-2.432593 8.027557-4.013778 12.406224-5.473334 0-2.432593-2.554223-5.473334 0-8.027556 0 2.432593 0 5.473334 2.432593 5.473334 20.433781-8.027557 33.813042-23.352892 50.233045-33.813042 2.432593-5.473334-5.473334 0-2.432593-5.473334 5.473334-2.432593 0 5.473334 5.473334 2.554222 0-2.554223-2.432593-8.027557 0-8.027556s-2.432593 8.027557 2.432593 5.473334c16.420002-23.352892 42.327117-36.853783 57.287564-62.760898-2.432593 0-5.473334 2.432593-5.473335 0 2.432593 0 2.432593-2.432593 5.473335-2.432593v5.473334c8.027557-2.432593 10.946668-13.500891 16.420002-23.352892 2.432593-2.432593 5.473334-2.432593 8.027557-5.473334 2.432593-2.432593 0-8.027557 2.432593-10.946669 2.432593-2.432593 7.905927-5.473334 10.946668-7.905927 2.432593-5.473334 2.432593-10.946668 5.473334-16.420002 0-2.432593 5.473334 0 5.473334-2.432593v-5.473334l8.027557-8.027557c2.432593-8.027557 5.473334-20.433781 8.027557-25.907115 2.432593 0 5.473334 0 5.473334-2.432593s-2.432593-8.027557 0-10.946668c0-2.432593 5.473334-2.432593 5.473334-5.473334v-8.027557s5.473334 0 5.473334-2.432593V681.126024s5.473334-2.432593 5.473334-5.473334c0-8.027557 0-16.420002 2.432593-25.907115 0 0 5.473334-2.432593 5.473334-5.473334 2.432593-16.420002 2.432593-36.853783 8.027557-50.233044l-23.352892-5.473334c-10.946668 62.760898-28.826226 118.467276-62.760898 155.321059-2.432593 5.473334 5.473334 0 2.432593 5.473335-2.432593 0-2.432593 5.473334-8.027557 2.432593-2.432593 7.905927-5.473334 16.420002-5.473334 28.826226l4.013778-5.473334c2.432593 0 2.432593 0 2.432593-5.473334-5.473334 8.027557-10.946668 13.500891-16.420002 23.352892-2.432593 2.432593 5.473334 5.473334 2.432593 8.027557 0 0-2.432593 0-2.432593-5.473334-5.473334 5.473334-10.946668 10.946668-10.946669 20.43378-2.432593 2.432593-2.432593 0-5.473334 0 0 2.432593 0 8.027557-8.027556 8.027557-5.473334 10.946668-25.907115 20.433781-20.433781 31.380449l-6.93289-6.93289v5.473334c-20.433781 5.473334-28.826226 25.907115-47.800451 33.813042 0 2.432593 2.432593 2.432593 2.432592 2.432593-5.473334-2.432593-8.027557 2.432593-13.50089 2.432593v5.473334c-28.826226 16.420002-57.287564 28.826226-81.613494 44.75971-2.432593-2.432593-16.420002 2.432593-20.43378 7.905927 0 0 0-2.432593-2.432593-2.432593-10.946668 8.027557-31.380449 10.946668-47.800452 13.500891-2.432593 5.473334 2.432593 2.432593 2.432593 8.027557-2.432593 0-5.473334 2.432593-8.027556 0 2.432593 0 2.432593 0 2.432592-2.432593-5.473334 2.432593 0-5.473334-5.473334-2.432593-7.905927 5.473334-28.826226 0-33.813042 8.027557-5.473334-5.473334-20.433781 0-25.907114 0 5.473334 5.473334-2.432593 5.473334 0 13.500891 2.432593 0 5.473334-2.432593 5.473334 0s2.554223 5.473334 0 5.473334c0 0-2.432593 0-2.432593-5.473334-5.473334-2.432593 0 5.473334-5.473334 2.432593 2.432593-5.473334-5.473334-2.432593-5.473334-5.473335-2.432593-2.432593 2.432593-2.432593 2.432592-5.473334-8.027557 0-5.473334 13.500891-16.420002 8.027557 0-2.432593-2.432593-5.473334 0-5.473334 5.473334-2.432593 0 7.905927 5.473334 5.473334v-13.500891c-5.473334-2.432593-8.027557 5.473334-10.946668 0 0 5.473334-10.946668 2.432593-13.500891 2.432593 0 2.432593 2.432593 8.027557 0 8.027557-2.432593-8.027557-2.432593 5.473334-5.473334 2.432593-2.432593-5.473334 5.473334-5.473334 2.432593-10.946668h-13.500891c0 2.432593 8.027557 2.432593 8.027557 5.473334 0 0 0 5.473334-2.432593 5.473334s0-5.473334-5.473334-2.432593c2.432593 2.432593 5.473334 7.905927 0 13.500891h13.500891c-1.459556 1.459556-2.432593 2.432593-5.473335 2.432593 0 2.432593 0 5.473334 2.432593 5.473334 0-2.554223 7.905927-2.554223 7.905927-5.108445z m0 0s-0.973037 0 0 0c-0.973037 0 0 0 0 0z m150.455874-27.366671v1.459556h1.459556l-1.459556-1.459556z m194.607436-782.80841c-1.459556 9.487112 17.879558 6.93289 9.487112 12.406224 2.432593 0 2.432593-2.432593 8.027557 0 0 0-2.432593-2.432593 0-2.432592 2.432593 5.473334 2.432593 0 5.473334 0 0 2.432593 5.473334 5.473334 2.432593 13.50089h-5.473334v5.473334c5.473334 0 5.473334 0 10.946668-2.432592 0 2.432593-2.432593 5.473334-8.027557 5.473334 5.473334 5.473334 2.432593 5.473334 8.027557 10.946668l28.826226-8.027557c-2.432593 0-5.473334 2.432593-5.473334 0v-5.473334c-5.473334-2.432593-8.027557-8.027557-10.946668-13.500891-2.432593-2.432593-2.432593 5.473334-5.473334 0 0 0 2.432593 0 2.432593-2.432593-2.432593-2.432593-5.473334-2.432593-5.473334-5.473334-2.432593-2.432593-5.473334 5.473334-8.027557 0h5.473334c0-2.432593-5.473334-5.473334-5.473334-10.946668h-7.905927v-8.027557c-23.352892-10.946668-25.907115-39.286376-57.287564-39.286376 0 0 2.432593 5.473334 0 5.473334 2.432593-5.473334-5.473334-8.027557 0-10.946668 2.432593 5.473334 2.432593-2.432593 8.027557 2.432593 0-8.027557-10.946668-16.420002-20.433781-10.946668 0 2.432593 5.473334 0 5.473334 2.432593-2.432593 7.905927-10.946668 23.352892 0 25.907115 5.473334 2.432593 0-5.473334 5.473334-2.432593 2.432593 5.473334-5.473334 0-2.432593 5.473334 10.946668 8.027557 16.420002 23.352892 36.853784 25.907115 0 2.432593-8.027557-2.432593-5.473335 2.432592 2.432593 0 5.473334 2.432593 5.473335 8.027557 1.459556 1.459556 2.432593 0 2.432592 0 2.067704-3.52726 3.040741-3.52726 3.040742-3.52726z m-789.7413 124.062241c4.013778-4.013778 1.459556-13.500891 6.93289-13.500891 0-2.432593-5.473334-5.473334-2.432593-8.027557 0 2.432593 5.473334 0 2.432593 5.473334 2.432593 2.432593 0-2.432593 2.432593-2.432593l2.432593 2.432593c-2.432593 0-2.432593 5.473334-8.027557 2.432593 2.432593 5.473334-2.432593 5.473334-2.432593 8.027557 5.473334 0 2.432593 5.473334 8.027557 2.432593 2.432593-5.473334-5.473334 0-2.432593-5.473334 2.432593 2.432593 0-5.473334 2.432593-5.473334 0 0 0 2.432593 2.432593 2.432592 13.500891-28.826226 28.826226-55.828008 50.354674-76.140159v-8.027556h5.473334c0-13.500891 13.500891-10.946668 16.420002-25.907115h5.473335c2.432593-7.905927 10.946668-16.420002 20.43378-23.352893 10.946668-8.027557 16.420002-20.433781 28.826227-23.352892 2.432593-5.473334 5.473334-8.027557 7.905927-10.946668 7.905927 2.432593 5.473334-5.473334 13.500891-5.473334 10.946668-16.420002 39.286376-23.352892 57.287563-39.286376 42.327117-13.500891 79.1809-36.853783 133.427723-42.327117 2.432593-2.432593-5.473334-2.432593 0-5.473335 33.813042 2.432593 79.1809-5.473334 123.940611-2.432593 0-2.432593 0-5.473334 5.473334-2.432592-2.432593 2.432593 2.432593 2.432593 2.432593 5.473334 10.946668-2.432593 23.352892 5.473334 28.826226 0 5.473334 5.473334 23.352892 10.946668 25.907115 0V49.868155c5.473334 0 10.946668 0 13.500891 2.432593 2.432593-5.473334-2.432593-5.473334-2.432593-8.027556 5.473334 2.432593 0-5.473334 5.473334-2.432593 2.432593 5.473334-5.473334 0-2.432593 5.473334 2.432593 0 2.432593 2.432593 2.432593 5.473334 10.946668 0 23.352892 5.473334 31.380449 7.905927 0 0 0-2.432593 2.432593-2.432593-5.473334-2.432593 2.432593-5.473334-2.432593-10.946668h5.473334c0 2.432593 0 2.432593 2.432593 5.473334-5.473334 2.432593-5.473334 5.473334-5.473334 13.500891 2.432593 2.432593 0-5.473334 2.432593-5.473334 0 0 2.432593-2.432593 2.432593 0 0 0-2.432593 0-2.432593 2.432593 2.432593 0 2.432593 0 2.432593 2.432593 4.013778 4.013778 4.013778-1.459556 6.93289-1.459556v5.473334c44.75971 13.500891 79.1809 39.286376 116.034683 62.760898 0-2.432593 5.473334-5.473334 8.027557-2.432593-2.432593 0 0 5.473334-2.432593 5.473334 0 0 0-2.432593-2.432593-2.432593 0 2.432593 5.473334 2.432593 8.027557 2.432593 2.432593-7.905927 2.432593-20.433781 2.432593-28.826226-8.027557 2.432593-8.027557-8.027557-16.420002-5.473335 2.432593-2.432593 0-2.432593 0-5.473334-31.380449-16.420002-60.206675-33.813042-90.127569-47.800451-2.432593 0 0 5.473334-5.473334 2.432593v-5.473334c-13.379261 0-23.352892-13.500891-36.853783-8.027557 2.432593 0 2.432593 0 2.432593 2.432593-5.473334 2.432593-10.946668 2.432593-16.420003 5.473334 0-5.473334 5.473334-2.432593 5.473334-8.027557 2.432593-2.432593-2.432593 5.473334 2.432593 2.432593 0-2.432593 5.473334 0 2.432593-5.473334-20.433781-5.473334-39.286376-10.946668-62.760898-13.500891 0 2.432593 0 5.473334-2.432593 5.473335 2.432593-5.473334-5.473334-5.473334-10.946668-5.473335 0 2.432593-2.432593 5.473334-7.905927 5.473335v-9.487113c-13.500891-2.432593-25.907115 8.027557-28.826226-2.432593-7.905927 2.432593-7.905927 0-16.420003 2.432593-8.027557-5.473334-28.826226 0-44.75971 2.432593 0 5.473334-8.027557 2.432593-2.432593 8.027557-1.459556 0-4.013778 1.459556-5.473334 1.459556v-1.459556l-1.459556 1.459556c-1.459556 0-1.459556 0-1.459555-1.459556 0-2.432593 5.473334-2.432593 2.432593-5.473334-23.352892-2.432593-33.813042 5.473334-53.273786 2.432593 0 2.432593-5.473334 2.432593-5.473334 5.473334-12.406224-2.432593-31.380449 6.93289-43.786673 12.406224-5.473334 2.432593 0-5.473334-5.473334-2.432593-10.946668 5.473334-23.352892 5.473334-33.813042 10.946668 0 2.432593 2.432593 5.473334 0 5.473334-2.432593-8.027557-10.946668 0-13.500891 0 0 2.432593 2.432593 7.905927 0 7.905927s2.432593-10.946668-2.432593-7.905927l-5.473334 5.473334c-76.261789 31.623708-129.535574 79.42416-181.228174 136.711724 0 2.432593 5.473334 2.432593 5.473334 5.473334-5.473334-2.432593 0 5.473334-5.473334 2.432593 0-2.432593 2.554223-5.473334-2.432593-5.473334 0-2.432593 2.432593 5.473334 0 5.473334-5.473334 0 2.432593-2.432593-2.432593 2.432593-2.432593 2.432593-7.905927 2.432593-7.905927 5.473334v5.473334c-2.432593 0-5.473334 0-8.027557 2.432593 0 2.432593 0 8.027557-2.432593 10.946668-2.432593 5.473334-2.432593 2.432593-5.473334 7.905927l-6.93289 4.013779c0 2.432593 0 8.027557-2.554223 10.946668 5.473334 2.432593 0-8.027557 5.473334-5.473334 0 5.473334-2.432593 8.027557-2.432592 13.500891 0 0 1.459556 2.432593 2.432592 5.473334h-2.432592c-4.013778 0-2.432593 2.432593-4.013779 4.013778 6.93289-4.013778 4.013778-4.013778 4.013779-9.487112h-10.946669c-5.473334 10.946668-8.027557 23.352892-13.500891 31.380449 2.432593 0 2.432593 8.027557 0 10.946668 0 0 0-2.432593-2.432593-2.432593 1.459556 1.459556 1.459556 4.013778 2.432593 5.473334-5.473334 0-2.432593 16.420002-10.946668 10.946668 2.432593-5.473334 2.432593-7.905927 5.473334-13.500891h-6.93289c0 2.432593 2.432593 10.946668-2.432593 10.946669 0 2.432593 5.473334 2.432593 2.432593 8.027556h-8.027556c2.432593 5.473334-2.432593 5.473334-2.432593 8.027557 5.473334-2.432593 5.473334 2.432593 8.027556 2.432593 2.432593-2.432593 0-8.027557 5.473335-8.027557-2.432593 8.027557-2.432593 10.946668 0 20.433781-2.432593 0-8.027557 2.432593-8.027557 0-2.432593-2.432593 2.432593-2.432593 2.432593-5.473334-8.027557 2.432593-5.473334-2.432593-10.946668-2.432593 2.432593 10.946668-2.432593 13.500891 0 23.352892h-6.93289c0 20.433781-8.027557 33.813042-10.946669 53.273786-2.432593 20.433781 0 25.907115-5.473334 44.75971h25.907115c0-53.273785 13.500891-81.613493 28.826227-121.508018 0 0-2.432593-5.473334 0-7.905927 2.432593 0-2.432593 10.946668 2.432592 7.905927-2.432593-13.500891 5.473334-13.500891 5.473335-23.352892-2.067704 0.608148-2.067704-0.851408-3.64889-3.284z m-2.432593 1.459555c-5.473334 0-6.93289-1.459556-8.027556-2.432593v8.027557c4.986816-0.12163 8.027557-1.581185 8.027556-5.594964z m456.597696-184.268915h8.027557v5.473334c5.473334 0 8.027557-2.432593 10.946668-5.473334 16.420002 5.473334 20.433781 5.473334 39.286376 5.473334v10.946668c5.473334 0 0-8.027557 7.905927-5.473334 0 2.432593-5.473334 2.432593-2.432593 8.027557-10.946668 2.432593-10.946668-5.473334-23.352892-2.432593 0-5.473334 5.473334-2.432593 7.905927-2.432593v-2.432593c-5.473334-2.432593-13.500891 0-10.946668 5.473334-2.432593-5.473334-16.420002 0-20.433781-5.473334-2.432593 5.473334-8.027557 0-13.500891 0-3.40563-9.122224-0.364889-6.203112-3.40563-11.676446z m211.635586 84.654234c5.473334 2.432593 7.905927 2.432593 16.420003 2.432593 0 2.432593-5.473334 2.432593-2.432593 8.027557-2.432593-5.473334-13.500891-5.473334-16.420003-8.027557-3.040741-2.432593 5.351704 0.12163 2.432593-2.432593z m34.299561 31.380449h8.027556c0 2.432593 0 2.432593 2.432593 2.432593-2.432593 2.432593-2.432593 5.473334-8.027556 5.473334 0.12163-2.432593-2.432593-2.432593-2.432593-7.905927z m14.960446 2.432593s0 3.040741 0 0c0 5.473334 7.905927 0 5.473334 5.473334-5.473334-2.432593-2.432593 2.432593-7.905927 2.432593-4.500297-4.865186 2.432593-2.432593 2.432593-7.905927z m-637.339351 166.389358v10.946668c-5.473334 0-10.946668 2.432593-13.500891 2.432593 1.581185-0.973037 1.581185-13.379261 13.500891-13.379261z m339.589975 571.659342c2.432593 0 2.432593 2.432593 2.432593 5.473334h-5.473334c0.608148-5.473334 6.081482-2.554223 3.040741-5.473334z m36.853783 17.879558c-2.432593-2.432593 0-2.432593 0-5.473334h-2.432593v5.473334c2.432593-2.919112 2.432593 5.473334 2.432593 0zM239.610405 840.947381c2.432593 5.473334-2.432593 5.473334-2.432593 8.027557 5.473334 2.432593 5.473334-2.432593 8.027557-2.432593v-5.473334h-5.594964z m-5.473334 8.514075c0-2.432593 2.432593-8.027557-2.432593-8.027556 2.432593 2.554223-0.12163 8.027557 2.432593 8.027556z m5.473334 10.946668c2.432593 0 5.473334-2.432593 5.473334-5.473334-5.473334 2.432593 0-5.473334-5.473334-2.432593v7.905927zM579.20038 132.941204c2.432593 2.432593 2.432593 2.432593 2.432593 5.473335-20.433781-2.432593-39.286376 7.905927-53.273785 2.432592-10.946668 7.905927-36.853783 5.473334-47.800452 13.500891-2.432593 0-2.432593 0-2.432593-2.432593-2.432593 5.473334-10.946668 5.473334-16.420002 10.946669-39.286376 8.027557-68.234232 33.813042-99.614681 50.233044 0-5.473334 5.473334-8.027557 5.473334-13.500891 0-2.432593-2.432593 0-5.473334 0 20.433781-16.420002 44.75971-31.380449 73.707566-42.327117 0-2.432593 5.473334-2.432593 2.432593-5.473334 20.433781 0 25.907115-10.946668 44.75971-10.946669v5.473335c2.432593 0 0-5.473334 0-7.905927 5.473334 5.473334 8.027557-2.432593 5.473334 5.473334 5.473334 2.432593 0-5.473334 5.473334-2.432593 2.432593-5.473334-5.473334 0-2.432593-5.473334 10.946668-2.432593 28.826226-8.027557 33.813042 0 5.473334 0 5.473334-5.473334 8.027557-5.473335 5.473334 0-2.432593 5.473334 2.432593 5.473335 5.473334 0 2.432593-2.432593 2.432593-5.473335 5.473334-2.432593 23.352892-5.473334 28.826226 0 0-2.432593 8.027557-2.432593 10.946669-2.432592v4.986815h2.432593c2.432593 0 0-2.432593 0-5.473334h13.50089c0 2.432593-2.432593 5.473334-5.473334 5.473334 0 2.432593 5.473334 2.432593 5.473334 5.473334h-11.919705c5.716593-2.675852 2.675852-5.594964-2.797482-5.594964z m-33.813042 5.473335c5.473334 0 8.027557-2.432593 10.946668-5.473335-3.040741 2.919112-8.514075 0-10.946668 5.473335zM703.749139 153.253356c0-5.473334 13.379261-5.473334 13.379261 0 0 0 0-2.432593 2.554223-2.432593 2.432593 5.473334 13.500891 10.946668 20.43378 8.027556v5.473334h-5.473334c0 2.432593 2.432593 2.432593 2.432593 2.432593 2.432593 0 0-5.473334 2.432593-2.432593 0 2.432593 0 2.432593 2.432593 2.432593-2.432593 2.432593-2.432593 2.432593-2.432593 5.473334-8.027557 0-16.420002-2.432593-16.420002-7.905927 5.473334-2.432593 0 5.473334 5.473334 2.432593 0-2.432593-5.473334-5.473334-5.473334-8.027556-2.432593 0 0 5.473334 0 8.027556-10.946668-2.432593-23.352892-2.432593-28.826227-13.50089-5.473334 5.473334-10.946668-2.432593-20.43378 0v-13.379262c5.473334-2.432593 2.432593 2.432593 8.027556 2.432593-2.432593 5.473334 0 5.473334 0 8.027557 13.379261 2.919112 27.366671-9.000594 21.893337 2.919112z m65.193491 22.014966c10.946668-2.432593 8.027557 5.473334 16.420002 5.473334 0 2.432593-5.473334 8.027557 0 10.946668 0-2.432593 2.432593-5.473334 2.432593-7.905927 5.473334-2.432593 0 5.473334 5.473334 2.432593-2.432593 5.473334-2.432593 2.432593 0 7.905927-5.473334 0-8.027557 0-8.027557 2.554223-5.473334-2.554223-8.027557-5.473334-13.50089-8.027557 0-2.432593 2.432593-2.432593 5.473334-5.473334-2.797482-2.432593-5.351704-2.432593-8.270816-7.905927-2.432593 5.473334 5.473334 5.473334 2.432593 10.946668-5.473334-2.432593-10.946668-2.432593-10.946669-8.027557-2.432593 0-2.432593 5.473334-7.905927 2.432593 0-2.432593-2.432593-2.432593 0-5.473334h5.473335c2.432593-5.473334-2.554223-2.432593-2.554223-8.027557 5.473334 0 8.027557 5.473334 13.500891 2.432593v5.716594zM336.670864 220.51455c2.432593 0 5.473334 0 5.473334-2.432593h5.473334c2.432593 0 0-5.473334 0-5.473334 5.473334-2.432593 0 5.473334 5.473334 2.432593 2.432593-5.473334-5.473334 0-2.432593-5.473334 5.473334 0 2.432593-5.473334 8.027557-5.473334 0 7.905927-5.473334 10.946668-2.432593 20.433781-8.027557 2.432593-10.946668 10.946668-23.352893 13.500891 0 5.473334-5.473334 8.027557-8.027556 10.946668h-2.432593c0-5.473334 5.473334-2.432593 5.473334-7.905927 0-2.432593-2.432593 0-2.432593 0-2.432593 5.473334-5.473334 10.946668 0 16.420002-26.150374 20.312151-37.097042 50.233044-63.004157 73.585937 0-5.473334 0-5.473334 2.432593-5.473334 0-2.432593-5.473334 0-8.027557 0 2.554223-5.473334 8.027557-5.473334 8.027557-13.500891 2.432593-2.432593 0 5.473334 0 5.473334 2.432593-2.432593 5.473334-5.473334 10.946668-5.473334v-2.432593c0-2.432593-2.432593 0-5.473334 0-2.432593-5.473334 2.432593-5.473334 2.432593-10.946668 8.027557 0 5.473334-10.946668 13.500891-8.027557v-8.027557c5.473334-2.432593 0 5.473334 5.473334 2.432593-8.027557-8.027557 8.027557-10.946668 5.473334-20.433781 5.473334 2.432593 10.946668-16.420002 13.500891-5.473334 2.432593 0 0-5.473334 0-8.027556 5.473334-2.432593 5.473334-8.027557 13.500891-8.027557 2.432593 2.432593 0 8.027557 0 10.946668 7.905927-16.176743 14.960447-21.650077 12.406224-33.569783z m500.505998 2.554223c10.946668-2.432593 10.946668 16.420002 16.420002 8.027557 0 5.473334-2.432593 10.946668-5.473334 13.500891 0-5.473334-5.473334-5.473334-10.946668-8.027557 0-2.432593 2.432593-5.473334 7.905927-5.473334-2.432593-1.094667-4.986816-1.094667-7.905927-8.027557-2.432593 2.432593 0 8.027557 0 8.027557h-5.473334 2.432593c0.486519-1.094667 3.040741-4.135408 3.040741-8.027557zM250.557073 342.995605c0-5.473334-2.432593-7.905927-2.432593-10.946668 2.432593 0 2.432593-2.554223 2.432593-2.554223h10.946669c0 8.027557-5.473334 5.473334 0 10.946669-10.946668 10.946668-10.946668 33.813042-23.352893 44.75971 2.432593 8.027557-2.432593 10.946668-2.432593 13.500891-5.473334 0-2.432593-5.473334-5.473334-2.432593h-2.432593c-2.432593 2.432593 0 10.946668 0 13.500891-2.432593 0-2.432593 2.432593-2.432593 2.432592h-8.027556c5.473334-28.826226 16.420002-47.800451 25.907114-70.666825h8.027557v1.459556h-0.729778zM568.253712 999.309182c0 2.554223-8.027557 2.554223-5.473334 10.946668H557.307044c-0.973037-8.392446 8.514075-13.379261 10.946668-10.946668z m229.515144-809.202043c2.432593 0 2.432593 5.473334 5.473334 2.432593v5.473334c8.027557-2.432593 8.027557 2.432593 13.500891 2.432593v8.027556c-5.473334-2.432593-2.554223 2.432593-5.473334 2.432593-3.040741 0-5.473334-2.432593-10.946668-2.432593-2.432593-2.432593 0-8.027557-2.432593-8.027556 0-5.473334 5.473334-2.432593 2.432593-5.473334 0 0.608148-2.554223 0.608148-2.554223-4.865186z m-213.095142 525.440076c5.473334 0 8.027557 2.432593 8.027557 5.473334-4.986816 0-4.986816-2.554223-8.027557-5.473334z m0 0" fill="#d81e06" p-id="893"></path><path d="M215.527735 568.010453l16.906521-4.135408 6.568001 27.001781 117.859128-28.704597L344.455161 511.574296l-142.063428 34.66445-3.52726-14.595558 158.60506-38.678228 22.379855 91.830384-16.541632 4.013778-2.919111-12.041335-117.859128 28.704597L256.638556 662.881577c2.919112 12.041335 10.095261 16.784891 21.528447 13.98741L375.227462 653.151206c11.311557-2.797482 17.14978-8.514075 17.514669-17.27141 0.364889-8.635705-0.486519-19.704003-2.554223-33.448153 5.716593 0.973037 11.798076 1.581185 18.366077 1.824444 1.459556 14.109039 2.189334 25.542226 2.067704 34.177931-0.364889 15.811854-9.487112 25.907115-27.60993 30.285782l-104.844756 25.542226c-20.068892 4.865186-32.718375-3.040741-37.70519-23.717781L215.527735 568.010453zM470.098587 563.996674c6.203112-3.040741 15.325336-7.905927 27.731559-14.838817l-10.703409-44.029932-26.758522 6.568001-3.40563-13.98741 26.758522-6.568-9.365483-38.556599 15.325336-3.770519 9.365483 38.556598 24.447559-5.959852 3.40563 13.987409-24.447559 5.959853 9.730371 39.651265c7.05452-4.013778 14.717187-8.392446 23.231263-13.257632 1.702815 6.568001 3.162371 11.676446 4.135408 15.446966-2.919112 1.581185-10.703409 6.203112-23.596151 13.74415l14.717187 60.328305c3.40563 13.86578-1.337926 22.623114-14.352299 26.028744-6.203112 1.459556-13.257632 3.284-21.285188 5.230075-2.189334-5.351704-4.500297-10.581779-6.93289-15.690224 8.027557-1.216296 14.717187-2.554223 20.190522-3.892149 5.594964-1.337926 7.662668-5.230075 6.081482-11.676446l-12.649483-52.057489c-7.419408 4.378667-15.933484 9.365483-25.420596 14.960446l-6.203112-16.176743z m53.638674-112.872312l114.696757-27.974819 3.52726 14.595557-99.249792 24.2043 8.149186 33.448153 87.451717-21.285188 18.974225 77.599715-15.325336 3.770519-1.581185-6.446371-72.126381 17.636298 9.608742 39.651265 102.047274-24.934077 3.52726 14.595557-117.37261 28.704597-42.327117-173.565506z m102.533793 40.745931l-72.126381 17.636299 10.581779 43.178525 72.126381-17.636299-10.581779-43.178525zM757.022924 502.330443c14.109039-4.865186 27.123411-9.608742 38.799858-14.473928 0.851408 5.716593 1.459556 10.33852 1.946074 13.74415-14.960447 5.594964-32.961634 12.649483-54.125193 21.163559l-6.68963-13.622521c5.838223-6.324742 12.406224-22.258225 19.704002-47.922081-11.676446 3.648889-21.163559 6.81126-28.461337 9.365483l-7.05452-12.041335c7.784297-22.379855 13.257632-46.340896 16.541632-71.883121l16.663262 1.824444c-4.378667 21.771707-9.973631 43.421784-16.784891 64.828602 4.865186-1.216296 12.649483-3.162371 23.109633-6.081482 2.432593-9.487112 4.986816-19.947262 7.662668-31.502079l15.325335 3.162371c-8.878964 31.745338-17.636299 59.598527-26.636893 83.437938z m-10.946668 52.787267c20.433781-9.243853 40.989191-19.095855 61.909491-29.556004 1.216296 7.297779 2.189334 12.284594 2.797481 14.960446-23.109633 10.946668-41.962228 20.312151-56.801045 28.096449l-7.905927-13.500891z m35.394227-111.534387c12.527854-21.650077 22.258225-47.192303 29.312745-76.505048l16.055114-0.973037c-1.946074 7.05452-3.892149 13.987409-5.959853 20.67704l54.611712-13.257631 3.162371 13.257631c-5.473334 13.379261-10.33852 24.325929-14.473928 32.718375l38.070079-9.243853 17.27141 70.910084-14.230669 3.405631-1.946074-8.027557-78.451123 18.974225 9.608743 39.408006c1.946074 8.149186 6.93289 11.189928 14.960446 9.243853l59.841787-14.595558c9.487112-2.310963 14.109039-6.93289 13.987409-13.86578 0-5.838223-1.216296-15.325336-3.40563-28.339708 4.986816 0.851408 10.46015 1.581185 16.541632 2.067704 1.702815 13.74415 2.432593 23.596152 2.310963 29.312745 0 11.798076-6.81126 19.460744-20.312151 22.744744L849.339827 558.280081c-15.203706 3.770519-24.690818-1.824445-28.339708-16.663262l-23.474522-96.209051c-2.067704 4.135408-4.257038 8.149186-6.446371 12.162965-2.675852-5.108445-5.838223-9.730372-9.608743-13.98741z m79.42416-52.179118l-45.124599 11.068298c-4.013778 11.311557-8.270816 21.893337-12.892743 31.988597l44.394822-10.825039c4.013778-8.635705 8.514075-19.339114 13.62252-32.231856z m-39.286376 90.614087l32.353486-7.905927-8.757334-35.637487-32.353487 7.905927 8.757335 35.637487z m69.937047-54.854971l-32.353486 7.905927 8.757335 35.637487 32.353486-7.905927-8.757335-35.637487z" fill="#d81e06" p-id="894"></path></svg>