<?xml version="1.0" standalone="no"?><!DOCTYPE svg PUBLIC "-//W3C//DTD SVG 1.1//EN" "http://www.w3.org/Graphics/SVG/1.1/DTD/svg11.dtd"><svg t="1748423026810" class="icon" viewBox="0 0 1024 1024" version="1.1" xmlns="http://www.w3.org/2000/svg" p-id="1050" xmlns:xlink="http://www.w3.org/1999/xlink" width="200" height="200"><path d="M677.9 267.6c2.6 2.1 12.2 2.1 14.3 6.9-2.6-4.8 2.1-4.8 2.1-6.9-7.4 0-9.5 0-14.3-2.1 2.1 2.7-4.8 0-2.1 2.1z m18.5 5.3c2.1 4.8 4.8 4.8 6.9 6.9-4.8 0-6.9 2.6-6.9 4.8 4.8 2.1 9.5 2.1 9.5 6.9 2.6-2.1 4.8-6.9 4.8-11.7-4.8 7.4-4.8-9-14.3-6.9z m-32.8-19.6c2.1 0 0 4.8 2.1 6.9 4.8 0 7.4 2.1 9.5 2.1 2.7 0 0-4.2 4.8-2.1v-6.9c-4.8 0-4.8-4.2-11.7-2.1v-4.8c-2.6 2.6-2.6-2.1-4.8-2.1 0 4.8 2.1 4.8 2.1 4.2 2.7 2.7-2 0.1-2 4.8zM293.9 765c4.8-2.1 4.8 2.1 6.9 2.1 0-4.2 1.6-6.4 3.7-8.5-3.2-3.2-6.9-5.8-10.6-7.9 0 2.1 0 4.8-4.8 4.8-2.1 4.8 4.8 0 2.1 4.8 2.1 0 0-4.8 4.8-4.8 2.2 4.8-4.7 4.8-2.1 9.5z m89-541.9c4.8-4.8 12.2-4.8 14.3-9.5 0 2.1 0 2.1 2.1 2.1 9.5-6.9 30.7-4.8 40.2-11.7 11.7 4.8 27.5-3.7 43.4-2.1h11.7c0-2.6-4.8-2.6-4.8-4.8 2.7 0 4.8-2.6 4.8-4.8H483c0 2.6 2.1 4.8 0 4.8h-1.1c4.2 0 6.9 2.1 2.1 4.2 0-2.1 0-2.1-2.1-4.2h-1.1v-4.2c-2.7 0-9.5 0-9.5 2.1-4.2-4.8-18.5-2.1-23.3 0 0 2.6 2.1 4.8-2.1 4.8s2.6-4.8-2.1-4.8c-2.1 0-2.1 4.8-6.9 4.8-4.8-6.9-18.5-2.1-28.1 0-2.6 4.8 4.2 0 2.1 4.8-4.8-2.6 0 4.2-4.8 2.1 2.1-6.9 0 0-4.8-4.8 0 2.1 2.1 6.9 0 6.9V204c-16.4 0-21.2 9.5-37.6 9.5 2.6 2.6-2.1 2.6-2.1 4.8-23.3 9.5-44.5 21.2-60.9 35.5 2.6 0 4.8-2.1 4.8 0 0 4.8-4.8 6.9-4.8 11.7 25.5-14.3 49.4-35.5 82.2-42.4z m80.5-25.9c-2.6 2.7-4.8 4.8-9.5 4.8 2.6-4.8 7.4-2.2 9.5-4.8z m39.7-2.1c2.6 4.8 0 2.1 4.2 10.1 4.8 0 9.5 4.8 11.6 0 2.1 4.8 14.3 0 16.4 4.8-2.1-4.8 4.8-6.9 9.5-4.8v2.1c-2.1 0-6.9-2.7-6.9 2.1 9.5-2.6 9.5 4.2 19.1 2.1-2.6-4.8 2.1-4.8 2.1-6.9-6.9-2.1-2.1 4.8-6.9 4.8v-9.5c-16.4 0-18.5 0-32.8-4.8-2.6 2.6-4.8 4.8-9.5 4.8v-4.8h-6.8z m211.8 96.4H708c0 4.8 2.1 4.8 2.1 6.9 4.8 0 4.8-2.6 6.9-4.8-2.1 0-2.1 0-2.1-2.1zM493.6 687.2c0-2.7-2.1-4.8-6.9-4.8 2.6 2.1 2.6 4.8 6.9 4.8z m-300.3 99c2.1 2.1-0.5 6.9 2.1 6.9 0-2.1 2.1-6.9-2.1-6.9z m368.1-583.7v11.7c6.9-2.1 11.7 4.8 16.4 0 4.2 9.5 13.8 9.5 23.3 11.7 0-2.1-2.1-6.9 0-6.9 0 2.1 4.8 4.8 4.8 6.9-4.8 2.6 0-4.2-4.8-2.1 0 4.8 7.4 6.9 14.3 6.9 0-2.6 0-2.6 2.1-4.8-2.1 0-2.1 0-2.1-2.1h0.5V219c-4.8 2.7-14.3-2.1-16.4-6.9-2.1 0-2.1 2.1-2.1 2.1 0-4.2-8.5-4.8-11.1-1.6 2.1-6.4-8.5 1.6-18-1.1 0-2.1-2.1-2.1 0-6.9-4.8 0-2.2-4.2-6.9-2.1z m52.9 21.2c0 1.1 0 2.1-1.1 2.1 0 0-2.1 0-2.1-2.1h3.2z m130.8-32.9c-2.1 6.9-9.5 19.1 0 21.2 4.8 2.1 0-4.8 4.8-2.1 2.1 4.8-4.8 0-2.1 4.8 9.5 6.9 14.3 19.1 30.7 21.2 0 2.1-6.9-2.1-4.8 2.1 2.1 0 4.8 2.1 4.8 6.9 1.6 0.5 2.1 0.5 2.1 0 1.1-0.5 1.6-1.1 2.1-1.1-1.6 7.4 14.3 5.8 7.9 10.1 2.1 0 2.1-2.1 6.9 0 0 0-2.1-2.1 0-2.1 2.1 4.8 2.1 0 4.8 0 0 2.1 4.8 4.8 2.1 11.6h-4.8v4.8c4.8 0 4.8 0 9.5-2.1 0 2.1-2.1 4.8-6.9 4.8 4.8 4.8 2.1 4.8 6.9 9.5l23.3-6.9c-2.1 0-4.8 2.1-4.8 0v-4.8c-4.8-2.1-6.9-6.9-9.5-11.7-2.1-2.1-2.1 4.8-4.8 0 0 0 2.1 0 2.1-2.1-2.1-2.1-4.8-2.1-4.8-4.8-2.1-2.1-4.8 4.8-6.9 0h4.8c0-2.1-4.8-4.8-4.8-9.5H797v-6.9c-19.1-9.5-21.2-32.8-47.1-32.8 0 0 2.1 4.8 0 4.8 2.1-4.8-4.8-6.9 0-9.5 2.1 4.8 2.1-2.1 6.9 2.1 0-6.9-9.5-14.3-16.4-9.5 0 2 4.7-0.1 4.7 2z m-25.4 103.3c0 4.8-4.8 2.1-2.1 6.9 4.8 0 2.1-4.2 6.9-2.1 2.1-4.8-4.8 0-4.8-4.8z m-94.3-61.4c-2.1 2.6 0 2.6 0 4.8 4.8 2.7 4.8-2.1 6.9-2.1 0 4.8 4.8 4.8 9.5 6.9 2.7-4.8-4.2-4.8-2.1-9.5 2.6 4.8 4.8 4.8 7.4 6.9-2.6 2.6-4.8 2.6-4.8 4.8 4.8 2.1 6.9 4.8 11.7 6.9 0-2.1 2.1-2.1 6.9-2.1-2.1-4.8-2.1-2.1 0-6.9-4.8 2.6 0-4.2-4.8-2.1 0 2.1-2.1 4.8-2.1 6.9-4.8-2.6 0-7.4 0-9.5-7.4 0-4.8-6.9-14.3-4.8v-4.8c-4.8 2.6-6.9-2.1-11.7-2.1 0 4.8 4.2 2.1 2.1 6.9h-4.7z m-49.2 572.1c-6.9 4.8-19.1 4.8-23.3 9.5-2.1-4.8-6.9 0-9.5 2.1-14.3-4.8-32.8 4.8-51.9 2.1 0 0 0 2.1-2.1 2.1 0-2.1 2.1-2.1 2.1-2.1-14.3 0-23.3-2.1-32.8 2.1v-4.8c-6.9 0-11.7 0-16.4-2.1-4.8 2.1-4.8 4.8-4.8 6.9 0-2.1-2.1-2.1-2.1-2.1 2.1 0 2.1-2.1 2.1-4.8-6.9 0-11.6-2.1-16.4-4.8 0 2.1 2.1 4.8 0 4.8-4.8-4.8-11.7-6.9-16.4-9.5 0 2.1 2.1 4.8 0 4.8 0 0-2.1 2.1-2.1 0 0 0 2.1 0 2.1-2.1-6.9 0-11.7-2.1-19.1-4.8-2.1 0 0 4.8-2.1 4.8 0 0-2.1 2.1-2.1 0 2.1 0 2.1 0 2.1-4.8-4.8-2.1-9.5 2.1-14.3 0 0-2.1 6.9 2.1 4.8-2.1-14.3-2.1-19.1-14.3-32.8-16.4 0 2.1-2.1 4.8-4.8 4.8-2.1-4.8 2.1-4.8 2.1-6.9-12.2-6.9-22.8-14.8-33.4-22.8 0-0.5 0.5-1.1 0.5-1.1l-1.1 1.1s0.5 0 0.5 0.5c-1.1 3.2 0.5 5.3 0.5 7.9h-4.8c2.1 4.8 6.9 6.9 11.7 9.5 2.1-4.8-4.8 0-2.1-4.8h4.8c0 4.8 2.1 6.9 2.1 9.5 2.1 0 2.1-2.1 2.1-2.1 4.8 6.9 11.7 14.3 26 14.3-2.1 2.1 0 2.1 0 4.8 4.8 0 6.9 2.1 9.5 2.1 0-2.1 4.8-4.8 6.9-2.1-2.1 0-2.1 2.1-2.1 6.9 4.8 0 9.5 0 11.7 4.8 4.8 2.1 0-4.8 4.8-2.1-2.1 4.8 4.8 0 2.1 4.8 21.2 4.8 47.1 19.1 70.4 14.3 2.1 0 0 4.8 4.8 4.8s2.1-4.8 6.9-4.8v4.8c6.9-2.1 14.3 0 21.2 2.1-2.1-4.8 2.1-4.8 2.1-6.9-2.1 0-4.8 4.8-6.9 0 2.1-2.1 4.8-2.1 6.9-4.8 0 2.1 4.8 0 4.8 2.1v2.1c-4.8 0-4.8 0-4.8 4.8 14.3 0 25.9-2.1 44.5-2.1 0-2.1-2.1-4.8 0-4.8v4.8c4.8-4.8 16.4-2.1 21.2-6.9 0 0 0 2.1 2.1 2.1 19.1-6.9 42.4-9.5 56.7-21.2 6.9 0 19.1-2.1 21.2-9.5 0 0 0 2.1 2.1 2.1 9-7.4 20.7-11.7 29.7-18.5 1.6-0.5 2.1-0.5 2.7-1.1 2.6-2.1 4.8-4.2 6.9-6.9 2.1-2.1-4.8 2.1-2.1-2.1 6.9 2.1 9.5 0 9.5-4.8 2.1 0 0 2.1 0 4.8 4.8 0 2.1-6.9 11.7-4.8 2.1-2.1-4.8-4.8 0-6.9 1.6 1.6 3.2 2.1 4.2 2.1l0.5 0.5v-0.5c1.6-0.5 2.7-2.7 4.2-4.2h2.6v-2.1c1.1-0.5 2.7-0.5 4.8-0.5V746c11.7-4.8 16.4-16.4 28.1-23.3 0-9.5 9.5-9.5 9.5-19.1h4.8c0-4.8 4.8-11.7 0-16.4 6.9 2.1 9.5-2.1 11.7-4.8 16.4-30.7 28.1-51.9 37.6-89.5-6.9-2.1-6.9 6.9-14.3 4.8-9.5 42.4-21.2 61.4-42.4 89.5 0 4.8 2.1 14.3 0 16.4-2.1-2.1-4.8-2.1-9.5-2.1-19.1 23.3-40.2 47.1-65.7 63.6v2.1c-9.5-2.1-16.4 4.8-21.2 11.7-16.4 2.1-28.1 16.4-47.1 19.1 0 2.1 2.1 4.8 0 4.8-4.8-4.8-16.4 0-19.1 6.9-2.3-0.2 1.9-7.1-2.3-4.9z m120.2-525s-1.1-2.1-1.1-4.2c-0.5 1.6-1.6 3.2-1.6 4.2h2.7z m-496.7 516v6.9c2.1 0 4.8-2.1 4.8-4.8-4.8 2.1-0.1-4.8-4.8-2.1z m496.7-522.9c-0.5 0.5-1.1 1.6-1.1 2.6 0.6-1 1.1-2 1.1-2.6z m-423.1 14.9v-1.1c0-2.1-2.1 0-2.1 0s0 0.5-0.5 0.5c0.4 0 1 0 2.6 0.6-0.6-0.6-0.6-0.6 0 0zM134 335.4c-0.5 0-0.5 0-1.1 0.5 0.6 0.1 0.6-0.5 1.1-0.5z" fill="#8a8a8a" p-id="1051"></path><path d="M278.6 283c-0.5 0-0.5 0-1.1 0.5 0 3.2-2.1 5.3-3.7 6.9 0-1.1 0-2.1-0.5-2.6-0.5 2.1-2.7 2.1-4.2 3.2 0.5-1.1 1.1-2.6 1.6-3.7-4.8 1.1-5.3 4.8-9.5 6.9 0 2.1 2.1 6.9 0 6.9-2.1-9.5-6.9 6.9-11.7 4.8 2.1 6.9-11.7 9.5-4.8 16.4-4.8 2.6 0-4.2-4.8-2.1v6.9c-6.9-2.6-4.8 6.9-11.6 6.9 0 4.8-4.2 4.8-2.1 9.5 2.6 0 4.8-2.1 4.8 0v2.6c-4.8 0-7.4 2.7-9.5 4.8 0 0 2.1-6.9 0-4.8 0 6.9-4.8 6.9-6.9 11.7 2.1 0 6.9-2.1 6.9 0-2.1 0-2.1 0-2.1 4.8 21.2-19.1 30.7-45 51.9-61.4-2.6-2.6-3.2-4.8-2.6-7.4h2.1c0.5-1.1 2.1-2.1 3.2-2.6 0 2.1-1.1 3.7-1.1 5.3 2-5.6 4.1-9.8 5.7-13.5m444.8-86.3c0 1.1 1.1 1.6 2.1 1.6 0-0.6-0.5-1.6-2.1-1.6m-431.6 64.1c-2.7 4.8 4.2 0 2.1 4.8-4.8 2.6 0-4.2-4.8-2.1 0 0 2.1 4.8 0 4.8h-4.8c0 2.1-2.7 2.1-4.8 2.1 1.6 5.3 0.5 9-1.1 13.2 8.5-2.6 11.7-9.5 18-11.1-2.6-6.9 2.1-9.5 2.1-16.4-4.6-0.1-1.9 4.7-6.7 4.7M164.7 257c0-1-2.1-0.5 0 0" fill="#8a8a8a" p-id="1052"></path><path d="M121.8 370.4s-2.1-4.8 0-6.9c2.1 0-2.1 9.5 2.1 6.9-2.1-11.7 4.8-11.7 4.8-19.1-1.1-0.5-1.6-2.1-2.6-4.2 1.1-1.1 1.6-2.6 2.1-4.2 3.7 0.5 1.6 4.2 5.8 2.1 2.1-4.8-4.8 0-2.1-4.8 1.6 1.6 0.5-2.1 1.1-3.7-0.5 0.5-1.6 0.5-2.6 0 0.5-0.5 1.1-0.5 1.6-0.5 0-2.1-4.8-4.8-2.1-6.9 0 2.1 4.8 0 2.1 4.8 2.1 2.1 0-2.1 2.1-2.1l2.1 2.1c-1.1 0-1.6 1.1-2.1 1.6 0 0 0 2.1 2.1 2.1 11.7-23.3 23.3-47.1 42.4-63.6v-6.9h4.8c0-11.6 11.7-9.5 14.3-21.2h4.8c2.1-6.9 9.5-14.3 16.4-19.1 9.5-6.9 14.3-16.4 23.3-19.1 2.1-4.8 4.8-6.9 6.9-9.5 6.9 2.1 4.8-4.8 11.7-4.8 9.5-14.3 32.8-19.1 47.1-32.8 35.5-11.7 65.7-30.7 110.7-35.5 2.1-2.1-4.8-2.1 0-4.8 28.1 2.1 65.7-4.8 103.3-2.1 0-2.1 0-4.8 4.8-2.1-2.1 2.1 2.1 2.1 2.1 4.8 9.5-2.1 19.1 4.8 23.3 0 4.8 4.8 19.1 9.5 21.2 0v6.9c4.8 0 9.5 0 11.7 2.1 2.1-4.8-2.1-4.8-2.1-6.9 4.8 2.1 0-4.8 4.8-2.1 2.1 4.8-4.8 0-2.1 4.8 2.1 0 2.1 2.1 2.1 4.8 9.5 0 19.1 4.8 25.9 6.9 0 0 0-2.1 2.1-2.1-4.8-2.1 2.1-4.8-2.1-9.5h4.8c0 2.1 0 2.1 2.1 4.8-4.8 2.1-4.8 4.8-4.8 11.7 2.1 2.1 0-4.8 2.1-4.8 0 0 2.1-2.1 2.1 0 0 0-2.1 0-2.1 2.1 2.1 0 2.1 0 2.1 2.1 2.1 2.1 2.1-2.1 4.8-2.1v4.8c37.6 11.7 65.7 32.8 96.4 51.9 0-2.1 4.8-4.8 6.9-2.1-1.6 0-0.5 3.7-1.6 4.8 0-0.5-0.5-0.5-0.5 0h4.8c2.1-6.9 2.1-16.4 2.1-23.3-6.9 2.1-6.9-6.9-14.3-4.8 2.1-2.1 0-2.1 0-4.8-25.9-14.3-49.3-28.1-75.2-40.3-2.1 0 0 4.8-4.8 2.1V123c-11.6 0-19.1-11.7-30.7-6.9 2.1 0 2.1 0 2.1 2.1-4.8 2.1-9.5 2.1-14.3 4.8 0-4.8 4.8-2.1 4.8-6.9 2.1-2.1-2.1 4.8 2.1 2.1 0-2.1 4.8 0 2.1-4.8-16.4-4.8-32.8-9.5-51.9-11.7 0 2.1 0 4.8-2.1 4.8 2.1-4.8-4.8-4.8-9.5-4.8 0 2.1-2.1 4.8-6.9 4.8v-6.9c-11.6-2.1-21.2 6.9-23.3-2.1-6.9 2.1-6.9 0-14.3 2.1-6.9-4.8-23.3 0-37.6 2.1 0 4.8-6.9 2.1-2.1 6.9-1.1 0-3.2 0.5-4.8 1.1v-1.1l-1.1 1.1c-1.1 0-1.6 0-1.6-1.1 0-2.1 4.8-2.1 2.1-4.8-19.1-2.1-28.1 4.8-44.5 2.1 2.1 2.1-2.1 2.1-2.1 4.8-9.5-2.1-26 4.8-35.5 9.5-4.8 2.1 0-4.8-4.8-2.1-9.5 4.8-19.1 4.8-28.1 9.5 0 2.1 2.1 4.8 0 4.8-2.1-6.9-9.5 0-11.7 0 0 2.1 2.1 6.9 0 6.9s2.1-9.5-2.1-6.9l-4.8 4.8c-63.6 26-108 65.7-150.4 112.8 0 2.1 4.8 2.1 4.8 4.8-4.8-2.1 0 4.8-4.8 2.1 0-2.1 2.1-4.8-1.6-4.8 0.5 1.1 1.1 4.8-0.5 4.8h-0.5c0 0.5-0.5 1.1-1.6 2.1-2.1 2.1-6.9 2.1-6.9 4.8v4.8c-2.1 0-4.8 0-6.9 2.1 0 2.1 0 6.9-2.1 9.5-2.1 4.8-2.1 2.1-4.8 6.9l-4.8 2.1c0 2.1 0 6.9-2.1 9.5 4.8 2.1 0-6.9 4.8-4.8 0 4.8-2.1 6.9-2.1 11.7 0 0 1.1 2.1 1.6 4.8h-1.1c0-1.1-0.5-2.1-0.5-4.2h-9c-4.8 9.5-6.9 19.1-11.7 26 2.1 0 2.1 6.9 0 9.5 0 0 0-2.1-2.1-2.1 1.1 1.1 1.1 3.2 2.1 4.8-4.8 0-2.1 14.3-9.5 9.5 2.1-4.8 2.1-6.9 4.8-11.7h-5c0 2.1 2.1 9.5-2.1 9.5 0 2.1 4.8 2.1 2.1 6.9h-6.9c2.1 4.8-2.1 4.8-2.1 6.9 4.8-2.1 4.8 2.1 6.9 2.1 2.1-2.1 0-6.9 4.8-6.9-2.1 6.9-2.1 9.5 0 16.4-2.1 0-6.9 2.1-6.9 0-2.1-2.1 2.1-2.1 2.1-4.8-6.9 2.1-4.8-2.1-9.5-2.1 2.1 9.5-2.1 11.7 0 19.1h-4.8c0 16.4-6.9 28.1-9.5 44.5-2.1 16.4 0 21.2-4.8 37.6h21.2c0-44.3 11.7-68.2 23.3-101m7.9-33.4c0.5 2.1-0.5 2.6-1.1 3.7 0.1-1.6 0.6-2.6 1.1-3.7" fill="#8a8a8a" p-id="1053"></path><path d="M209.2 359.8s0 2.1-2.1 2.1c0 2.6 2.1 4.8 2.1 9.5h-6.4c-6.9 18.5-16.4 35.5-21.2 58.8h6.9s0-2.1 2.1-2.1c0-2.1-2.1-9.5 0-11.7h2.1c2.6-2.6 0 2.1 4.8 2.1 0-2.1 4.2-4.8 2.1-11.7 9.5-9.5 9.5-28.1 19.1-37.6-4.8-4.8 0-2.6 0-9.5h-9.5zM179 444.6c2.1 0 6.9-2.1 11.7-2.1V433c-9.6-0.1-9.6 9.4-11.7 11.6z m55.1 376.1c1.6 0 3.2-1.1 4.2-1.1 0-0.5 0.5-0.5 0.5-1.1-2.1-2.1-2.1 2.2-4.7 2.2z m229.3 106.4h4.8c-2.1-7.4 4.8-7.4 4.8-9.5-2.7-2.1-9.6 2.6-9.6 9.5z m2.1-15.3c-1.6-3.7-1.6-1.6 0-6.4-6.9-2.1-14.3-2.1-23.3 0 0-2.1-4.8-4.8-6.9-4.8 0 2.1 2.1 4.8 0 4.8s-2.1-2.1-2.1-4.8c-4.8 2.1-9.5 2.1-11.7 0-1.6 3.2-1.1 5.8-1.1 7.9 0.5 4.2 1.1 7.9-1.6 9 4.8 2.1 4.8 6.9 11.7 4.8 2.1-4.8-4.8 0-2.1-4.8 6.9 0 21.2-4.8 16.4 4.8v-4.8c-4.8 2.1-4.8 4.8-6.9 6.9 9.5 0 21.2 2.1 23.3-4.8v6.9c2.1 0 2.1-9.5 2.1-14.3 1.1-0.4 1.7-0.4 2.2-0.4z m7.4-3.2c2.1 2.1-2.6 0-2.6 4.8h4.8c-0.1-2.7-0.1-4.8-2.2-4.8z m354.8-207.1c-2.1 4.8 4.8 0 2.1 4.8-2.1 0-2.1 4.8-6.9 2.1-2.1 6.9-4.8 14.3-4.8 23.3l-2.1-2.1c2.1 0 2.1 0 2.1-4.8-4.8 6.9-9.5 11.7-14.3 19.1-2.1 2.1 4.8 4.8 2.1 6.9 0 0-2.1 0-2.1-4.8-4.8 4.8-9.5 9.5-9.5 16.4-2.1 2.1-2.1 0-4.8 0 0 2.1 0 6.9-6.9 6.9-4.8 9.5-21.2 16.4-16.4 26l-4.8-4.8v4.8c-16.4 4.8-23.3 21.2-40.2 28.1 0 1.1 0.5 1.6 1.1 1.6-3.7-1.1-6.4 2.7-10.6 2.7v4.8c-23.3 14.3-47.1 23.3-68.3 37.6-2.1-2.1-14.3 2.1-16.4 6.9 0 0 0-2.1-2.1-2.1-9.5 6.9-25.9 9.5-40.2 11.7-2.1 4.8 2.1 2.1 2.1 6.9-2.1 0-4.8 2.1-6.9 0 2.1 0 2.1 0 2.1-2.1-4.8 2.1 0-4.8-4.8-2.1-6.9 4.8-23.3 0-28.1 6.9-4.8-4.8-16.4 0-21.2 0 4.8 4.8-2.1 4.8 0 11.7h0.5c-0.5 1.1 1.1 4.2-2.6 2.1 2.1-4.8-4.8-2.1-4.8-4.8-2.1-2.1 2.1-2.1 2.1-4.8-6.9 0-4.8 11.7-14.3 6.9 0-2.1-2.1-4.8 0-4.8 4.8-2.1 0 6.9 4.8 4.8v-11.6c-4.8-2.1-6.9 4.8-9.5 0 0 4.8-9.5 2.1-11.6 2.1 0 2.1 2.1 6.9 0 6.9-2.1-6.9-2.1 4.8-4.8 2.1-2.1-4.8 4.8-4.8 2.1-9.5h-11.7c0 2.1 6.9 2.1 6.9 4.8 0 0 0 4.8-2.1 4.8s0-4.8-4.8-2.1c2.1 2.1 4.8 6.9 0 11.7 4.2 0.5 7.9 0.5 11.7 0.5-1.1 1.1-2.6 2.1-4.2 2.1 0 2.1 0 4.8 2.1 4.8 1.6-3.2 7.9-3.2 8.5-5.3 1.6 0 3.2-0.5 4.8-0.5v4.8c2.1-2.1 2.1 4.8 2.1 0-2.1-2.1 0-2.1 0-4.8h-1.6c10.6-1.1 19.1-2.7 25.4 0.5 7.4-1.6 17.5-2.1 24.9-4.2-0.5 1.1-1.6 2.1-1.6 4.2h4.8c0-2.6 0.5-4.2 0.5-5.3 2.6-1.1 4.8-2.1 6.4-3.7 2.1 2.1-2.1 2.1-2.1 4.8 6.9-2.1 16.4-2.1 19.1-6.9 2.1 0 2.1 0 2.1 2.1 4.8 0 4.8-4.8 9.5-4.8 0 2.1 0 4.8 2.1 4.8 4.8-2.1 6.9-4.8 14.3-4.8 0-2.1-2.1-6.9 0-6.9 2.1 6.9 9.5 2.1 14.3 2.1 0-1.6-3.2-3.2-3.2-4.8h3.2v2.1c0.5 0 1.1 0 1.6-0.5 3.7-0.5 6.9-1.6 10.6-2.6 0 1.1 0.5 1.6 2.1 0.5 0-0.5 0.5-1.1 0.5-1.1 8.5-2.6 16.4-5.8 23.8-9 1.1 2.1 2.6 2.6 4.2 1.1v-3.2c7.9-3.7 15.9-7.9 23.3-12.2v1.1h6.9c0-1.6 1.1-4.8 1.1-5.3 1.1-0.5 2.6-1.6 3.7-2.1 1.6 0 2.6-1.1 3.7-2.1 3.2-1.6 6.9-3.2 10.6-5.3 0-2.1-2.1-4.8 0-6.9 0 2.1 0 4.8 2.1 4.8 16.4-6.9 28.1-19.1 42.4-28.1 2.1-4.8-4.8 0-2.1-4.8 4.8-2.1 0 4.8 4.8 2.1 0-2.1-2.1-6.9 0-6.9s-2.1 6.9 2.1 4.8c14.3-19.1 35.5-30.7 47.1-51.9-2.1 0-4.8 2.1-4.8 0 2.1 0 2.1-2.1 4.8-2.1v4.8c6.9-2.1 9.5-11.7 14.3-19.1 2.1-2.1 4.8-2.1 6.9-4.8 2.1-2.1 0-6.9 2.1-9.5 2.1-2.1 6.9-4.8 9.5-6.9 2.1-4.8 2.1-9.5 4.8-14.3 0-2.1 4.8 0 4.8-2.1v-4.8l6.9-6.9c2.1-6.9 4.8-16.4 6.9-21.2 2.1 0 4.8 0 4.8-2.1s-2.1-6.9 0-9.5c0-2.1 4.8-2.1 4.8-4.8v-6.9s4.8 0 4.8-2.1v-6.9s4.8-2.1 4.8-4.8c0-6.9 0-14.3 2.1-21.2 0 0 4.8-2.1 4.8-4.8 2.1-14.3 2.1-30.7 6.9-42.4l-19.1-4.8c-9.7 51.6-23.5 98.8-52.1 129zM532.8 912.3s-2.1 0-2.1-4.8c-0.5 0-0.5 0-1.1-0.5 1.6-0.5 3.2-1.1 3.2 0.5 0 2.2 2.1 4.8 0 4.8z m159.4-45c0.5-0.5 1.6-1.1 2.1-1.1-0.5 0.5-1.6 1.1-2.1 1.1z m-494.7-74.2c4.8 2.1 4.8-2.1 6.9-2.1v-4.8h-4.8c2.2 4.8-2.1 4.8-2.1 6.9z" fill="#8a8a8a" p-id="1054"></path><path d="M390.3 891.6c-19.1-2.1-35.5-9.5-51.9-16.4v2.1c0-4.8-6.9 0-4.8-4.8-4.8 0-6.9 2.1-9.5-2.1-4.8-4.8-9.5-9.5-19.1-9.5 0 2.1-2.1 4.8-4.8 4.8 0-2.1 4.8-2.1 2.1-6.9-6.9-2.1-11.7-9.5-19.1-11.6l-4.8 4.8c-2.1-2.1-4.8-2.1-6.9-4.8 2.1-9.5-11.7-14.3-21.2-16.4 2.1-6.9-6.9-2.1-4.8-9.5-2.1-2.1-2.1 2.1-4.8 2.1 0-1.1-1.6-1.1-2.6-1.6-1.6 4.8 0 10.6-4.2 10.6 2.1-4.8-4.8-2.1-4.8-4.8v-4.8h5.8c-4.8-2.1-4.8-6.9 0-9.5 0-4.8-2.1 2.1-6.9 4.8-2.1 2.1 4.8 2.1 0 4.8 0 0 0-2.1-2.1-2.1-2.1 2.1-2.1 6.9-2.1 11.6 6.9 0 6.9 4.8 11.7 6.9 0-2.1 0-4.8 2.1-4.8v6.9c11.7 6.9 23.3 16.4 37.6 23.3 2.1-9.5 9.5 4.8 14.3-2.1 0 2.1 2.1 2.1 2.1 4.8-4.8 0-4.8 2.1-4.8 6.9 9.5-2.1 11.7 2.1 16.4 6.9 2.1-2.1-4.8-4.8 0-6.9 2.1 2.1 2.1 4.8 2.1 9.5 9.5 2.1 16.4 4.8 25.9 9.5 2.1-4.8-4.8-4.8-4.8-9.5 4.8-2.1 0 4.8 4.8 2.1 2.1-2.1 2.1-4.8 2.1-9.5 2.1 2.1 9.5 6.9 4.8 11.7 0 0 0-2.1-2.1-2.1 0 4.8 2.1 6.9 2.1 9.5 9.5-2.1 9.5 2.1 16.4 2.1 0-2.1 2.1-4.8 2.1-6.9 0 0 2.1 2.1 2.1 6.9h6.9c-2.1 4.8 0 4.8 0 6.9 5.3 1.6 10.1 2.6 15.4 4.2 1.1 1.6 1.6 2.1 2.1 2.1 3.2 1.1 5.8 1.6 9.5 2.7-2.1-4.8 2.1-6.9 2.1-9.5 2.1 0-2.1 6.9 2.1 4.8 2.1-4.8-2.1-4.8-2.1-6.9h4.8v-7.4c-4.8 0-6.9 2.1-9.5 2.1 2.4-2.3 0.3-2.3 0.3-5m-66.2-16.4s-2.1 2.1-2.1 0c0-1.6 2.7-0.5 2.7-2.6 0.5 1 0.5 2.6-0.6 2.6m141.4 36.6c0 2.1 1.6-0.6 0 0" fill="#8a8a8a" p-id="1055"></path><path d="M238.3 821.7c0-0.5 0-0.5 0.5-1.1 0-0.5 0-1.1-0.5-1.1-0.5 1.2 0 1.7 0 2.2m173.2 84.2c4.8-6.9 14.3-2.1 0-6.9 0 6.9-2.1 9.5-2.1 14.3 0 0-6.9 2.1-4.8 2.1 6.9-2.1 6.9 4.8 14.3 2.1 0-4.2 0-6.4 1.6-9-4.2 1.7-6.4-2.6-9-2.6m74.1-519.6c1.1-0.5 2.1-0.5 3.7-1.1v-1.6c-2.6 0.6-2.6 2.2-3.7 2.7m-31.2 10.1c2.1 5.8 7.9 3.7 10.1 7.9 1.6-2.1 3.7-2.1 7.9-2.1V398c-3.7-2.1-5.8 6.4-7.9 2.1 2.1-2.1 5.8-3.7 6.4-7.4 0 0.5-0.5 0.5-0.5 1.1 1.6-4.2-4.2-2.1-6.4-2.1-2.1 2.1 0 4.2-2.1 4.2-4.8-1.6-8.5-1.1-12.7-0.5 1.6 3.2 3.7 5.3 5.3 6.9-0.1-1.7-4.4-3.8-0.1-5.9m16.9-4.3c-0.5 0-0.5 0 0 0m5.9-3.2c-1.1 0-1.6 0-2.7 0.5 1.1 0.1 2.1 0.1 2.7-0.5m5.8-2.6l-1.1 1.1c1.1 0 1.6-0.5 2.7-0.5-0.6-0.1-1.1-0.6-1.6-0.6m-35 3.7c-4.2-2.1-4.2 2.1-6.4 4.2 1.1 1.1 1.6 2.1 2.1 2.7 1.6-0.5 3.7-1.1 5.3-1.6-0.4-1.6-1-3.2-1-5.3m-325.7 89l-1.1 0.5c0-0.5-0.5 0-0.5 0.5 1.1-0.5 1.6-0.5 1.6-1m11.2 10.1c1.1 0 2.1 0 3.2-0.5 0-2.1-2.1-2.1-2.1-4.2 5.8-1.6 1.6 6.4 7.9 4.2 2.1-3.7-2.1-1.6-2.1-5.8 7.9 5.8 22.2 3.7 26.5-4.2 4.2 5.8 10.1-2.1 16.4 0 2.1-3.7-4.2-1.6-2.1-5.8h6.4c0 2.1 0 4.2 2.1 4.2 7.9-1.6 14.3-5.8 24.4-5.8 77.3-22.2 156.8-42.4 236.2-62.5-2.1-4.2 4.2 0 2.1-4.2-4.2-2.1 0 4.2-4.2 2.1v-7.9c-2.1 0-3.2-0.5-4.2-1.6-4.8 1.6-9.5 3.2-14.8 3.2-40.8 12.2-85.3 24.4-130.3 34.4-18.5 4.2-37.1 12.2-57.2 14.3-14.3 4.2-30.7 7.9-45 12.2-2.1 2.1 0 4.2-2.1 4.2-20.7-2.1-37.1 10.1-57.2 12.2-2.1 3.7 2.1 1.6 2.1 5.8-1.6 0-6.4 1.1-6.9-2.1 0 1.1-1.1 2.1-2.1 4.2h4.2c-0.2 1.4-0.7 2.5-1.2 3.6m64.6-22.3c4.2-1.6 2.1 6.4-2.1 4.2-0.1-2.1 2.1-2.1 2.1-4.2" fill="#8a8a8a" p-id="1056"></path><path d="M121.8 486.9c0.5 2.1 1.6 4.2 2.1 6.4 0.5-1.1 1.6-2.1 2.1-3.2v0.5c3.7 0 5.8-0.5 6.9-2.1-1.1 0-2.1-0.5-2.6-0.5 0.5 0 0.5-0.5 0.5-1.1h-0.5v-1.6c0-1.6 0.5-3.2 2.1-4.8 0-0.5 0-1.1 0.5-1.6-14.3 1.6-6.4-0.5-10.1 0.5 2.1 2.7 3.2 4.8 4.8 6.4-2.1 0.1-4.2 0.6-5.8 1.1z m7.4 0.6c0 0.5-0.5 0.5-1.1 0.5 0-0.5 0.5-0.5 0.5-1.1l-0.5-0.5h1.6c0 0.5-0.5 0.5-0.5 1.1z m348-98.6c1.1-0.5 2.1-0.5 3.2-1.1 0.5-0.5 0.5-1.1 0.5-1.6-1.1 1.2-2.2 1.7-3.7 2.7z m339.4-83.7c-5.8-2.1-3.7 4.2-10.1 2.1 1.1-1.6 1.6-3.2 3.2-4.2-5.8 1.6-12.2 2.6-18.5 3.7 0.5 0.5 0.5 1.6-0.5 2.6-1.6 0-3.2 0-3.7-2.1h-0.5c-2.1 3.7 4.2 1.6 2.1 5.8-4.2 1.6-2.1-4.2-6.4-4.2-99 24.9-195.9 51.4-292.9 76.8v2.6H483c4.2 1.6-1.1 4.8-2.1 7.9-6.4 1.6-4.8-3.2-7.4-5.3-0.5 0.5-1.1 0.5-2.1 1.1 5.3 0.5 5.3 7.9 9.5 10.1v-3.7l2.1 2.1c2.1-1.6 0-5.8 2.1-5.8 7.9 2.1 10.1-4.2 14.3 0 2.1-3.7 2.1-1.6 0-5.8h6.4v5.8c2.1-0.5 4.2-2.1 6.9-3.2-1.6-0.5-5.3 0-5.3-3.2 6.4 1.6 8.5-2.1 8.5-1.6 0 1.6-3.2 1.6-2.6 4.8 5.3-2.1 10.6-3.7 14.8-1.1 2.1-1.6 2.1-3.7 4.2-5.8 8.5 7.9 16.4-4.2 28.6-2.1 77.3-24.4 158.9-44.5 238.3-64.6 2.1-5.8 0-7.9-2.1-10.1 2.1 0 2.1-2.1 4.2-2.1v7.9c35.5-6.4 68.3-16.4 102.7-25.4 0.5 0 0.5 0 1.6-0.5 8.5-2.1 16.9-4.2 26-6.4l0.5-0.5c-4.8 0.5-11.1 1.6-16.9 2.1l6.4-3.2c-2.1-1.1-4.2-1.6-2.6-4.8-20.1 4.2-36.5 12.2-60.9 14.3l-18.5 5.8c-7.9 1.6-15.4 3.7-22.8 5.8v4.4z m84.8-21.7c0.5 0 1.1 0 1.6 0.5-1.6-0.5-2.2-0.5-1.6-0.5z m-13.3 3.7h6.4c0 2.1-4.2 2.1-6.4 4.2v-4.2z m44.5-7.9c-0.5 0.5-0.5 1.1 0 1.1 0 3.2 0 6.4 4.8 5.3 1.1-2.1 1.1-4.2 1.1-6.4-0.5 0-2.7 0.5-5.8 1.1v-1.1z" fill="#8a8a8a" p-id="1057"></path><path d="M476.6 392.1c3.7 0 4.2-2.6 5.3-4.8-0.5 0-1.1 0-1.6 0.5 0 2.2-2.1 2.2-3.7 4.3zM787 307.4c1.6 0 2.7-0.5 4.2-0.5-1.1-1.6-3.2-1.6-4.8-1.6 0 1 0 1.5 0.6 2.1z m221.9 167.9c-12.2-14.3-7.9-42.4-20.1-56.7 5.8-10.1-6.4-20.1-4.2-32.3-6.4-2.1 0 5.8-4.2 5.8 2.1-14.3-2.1-28.6-12.2-34.4 4.2-2.1 2.1 2.1 6.4 2.1-3.7-7.9-3.7-22.3-10.1-28.1 5.8-12.2-6.4-26-6.4-40.3-2.1-2.1-4.2 0-4.2-2.1 4.2-6.4-2.1-12.2-2.1-22.2-3.2 0.5-5.3 0.5-7.4 1.1 2.1 0 3.2 1.6 3.2 4.8-4.2 0-6.4-1.6-6.4-4.2-0.5 0-1.1 0-1.6 0.5l0.5 0.5c-1.1 0-2.1 0.5-2.6 1.1h-2.1c1.6-0.5 0.5-1.1 4.2-2.1l-3.7-3.7c-4.2 0 0 5.8-2.1 4.2-4.2 0 0-2.1-2.1-4.2-6.4-2.1-6.4 4.2-10.1 4.2 0 2.6 1.6 3.7 2.7 4.8 4.8-1.1 7.4-2.1 9.5-2.7-0.5 0.5-0.5 1.6-0.5 3.2 1.6 0.5 3.2 0.5 3.2 0.5 1.1-1.1 1.1-2.6 1.6-3.7v7.9h0.5c0-2.1 0-3.7 1.1-3.7 2.1 3.7 2.1 5.8 6.4 5.8-5.8 0-3.7 10.1-10.1 5.8 6.4 24.4 12.2 44.5 18.5 68.9 2.1 2.1 4.2 0 4.2 2.1s-4.2 3.7-2.1 7.9c10.1 24.4 14.3 54.6 24.4 76.8 2.1-1.6 0-5.8 2.1-5.8 2.1 2.1 6.4 0 6.4 2.1s0 2.1-2.1 2.1c0 1.6 6.4 3.7 2.1 5.8-4.2 0 0-6.4-4.2-4.2-6.4 23.8 12.2 44 12.2 70.5 6.4 2.1 0-5.8 4.2-5.8 6.4 2.1 4.2 10.1 0 12.2-18-7.9-36.5 12.2-60.9 10.1-2.1 0-2.1 5.8-6.4 5.8-2.1-4.2 4.2 0 2.1-4.2-4.8 1.1-6.4 2.1-6.9 2.7-1.1 0-2.1-0.5-3.2-0.5 0 4.2-5.8 2.1-7.9 2.1-2.1 4.2 4.2 0 2.1 4.2-10.1-2.1-28.6 3.7-38.7 7.9 0-4.2-5.8 2.1-12.2 0-2.1 1.6 0 5.8-2.1 5.8s0-6.4-6.4-4.2v2.1c-16.4 0-30.7 12.2-40.8 7.9-7.9 6.4-26.5 6.4-34.4 14.3-32.8 2.1-55.1 12.2-81.6 18-2.1 1.6 0 5.8-2.1 5.8-4.2 0-2.1-3.7-2.1-5.8-2.1 4.2-5.8 0-10.1 2.1-5.8 4.2-7.9 12.2-12.2 10.1 2.1-2.1 6.4 0 4.2-4.2-10.1 0-18 8.5-24.4 4.2-10.6 5.8-20.7 10.1-32.8 10.1-30.7 8.5-58.8 18.5-89.5 24.4-2.1 2.1 0 4.2-2.1 4.2 0-2.1-3.7-2.1-7.9-2.1 0 4.2-2.1 6.4-4.2 2.1 0 4.2 2.1 7.9 2.1 10.1-4.2-1.6-2.1 4.2-4.2 4.2s-2.1-2.1-6.4-2.1c1.6 5.8-6.4 1.6-6.4 5.8 12.2 2.1 24.4-3.7 40.8-5.8 2.1-1.6 0-5.8 2.1-5.8s0 4.2 4.2 4.2c71.5-20.7 144.6-38.7 216.1-58.8 2.1-2.1 0-4.2 2.1-4.2 18.5 5.8 38.7-7.9 57.2-10.1 2.1-3.7-2.1-5.8-2.1-7.9 4.2 0 6.4 1.6 6.4 5.8 20.7-1.6 38.7-7.9 55.1-15.9-4.2 1.6-4.2-4.2-2.1-4.2 0 3.7 6.4 1.6 4.2 5.8 5.8 0 5.8-2.1 12.2-2.1v0.5h29.1c45-12.2 45-15.9 91.6-28.1-4.3-20.7-12.2-34.4-14.3-58.8z m-67.8-177.5c2.1 0 4.2 1.6 4.2 5.8-4.2-2.1-4.2-6.3-4.2-5.8z m20.6 72.1h4.2c0 2.1-4.2 2.1-6.4 4.2-2-4.2 3.8-2.1 2.2-4.2z m3.7 18.5c2.1-8.5-3.7-6.4-4.2-12.2 2.1 2.1 2.1 2.1 6.4 2.1 0 4.3 2.1 10.1-2.2 10.1z m22.3 71h4.2v5.8c-2.1-2.1-5.8-2.1-4.2-5.8z m6.3 18c0-2.1-2.1-2.1-4.2-2.1 0-5.8 6.4-4.2 4.2-10.1h4.2c0 1.6 0 3.7-2.1 5.8h-4.2c0 2.1 4.2 2.1 4.2 4.2 4.2 0 0-7.9 4.2-5.8v5.8c-4.2-2-2 2.2-6.3 2.2z m4.3 15.9c2.1-4.2 2.1-7.9 4.2-7.9 0 3.7-2.1 5.8-4.2 7.9zM546 648.5c-3.7 0-5.8-1.6-3.7-5.8h3.7v5.8z m14.3-7.9v-4.2c2.1 0 4.2 2.1 4.2 4.2h-4.2z m307.2-79c0-4.2-5.8-4.2-6.4-9.5 1.1 4.2 7.9 5.8 6.4 9.5z m30.7-1.6c-3.7 1.6-5.8 0-4.2-4.2h4.2v4.2z" fill="#8a8a8a" p-id="1058"></path><path d="M921.5 279.8c0.5 0 1.1 0.5 1.6 1.1 1.6-1.1 1.1-1.6 0.5-2.1-0.5 0.5-1.1 0.5-2.1 1z m19.6-11.1c1.1 0 2.1-0.5 3.2-0.5-1.1 0-2.2 0-3.2 0.5z m-131.4 34.4c2.1-1.1 4.8-1.6 6.9-2.1-3.2-1-5.3 0-6.9 2.1z m119.7-27.5c2.1 0.5 2.6 2.6 2.6 4.2 0.5-1.6 0-3.2 0.5-4.8-1.5-0.5-3.1-0.5-3.1 0.6z m-5.8 2.6c0.5-0.5 1.6-0.5 2.1-1.1 0-1.1-0.5-2.1-1.6-3.2-1.1 0-2.1 0.5-3.2 0.5-1 2.2 1.1 3.3 2.7 3.8zM474.5 390c-1.1 0.5-2.6 0.5-3.7 0.5 1.1 0 1.6 0.5 2.1 0.5 1.1-0.5 1.1-0.5 1.6-1zM123.9 493.3c-1.1 1.6-1.6 2.6-1.6 2.6 2.2 1.1 2.2-0.5 1.6-2.6zM12.7 536.2c2.1-2.1 0-4.2 2.1-4.2h2.1c-0.5 0.5-2.1 1.1-2.1 3.7h1.1c0 2.1 2.1 2.1 2.1 2.1 0-2.1 0-3.7-0.5-5.3 1.6 0.5 1.1 0.5-0.5-2.1-0.5-2.7-1.1-5.8-1.1-10.1-2.1 0-2.1-4.2-6.4-2.1-2.1 2.1 0 7.9-2.1 7.9H4.2c1.1 3.2 2.1 6.4 2.1 10.6l6.4-0.5z m178 209.2c58.8-10.1 111.7-28.1 168.9-42.4 2.1-2.1 0-4.2 2.1-4.2 7.9 4.2 16.4-2.1 24.4-2.1 2.1-2.1 0-4.2 2.1-4.2 12.2 4.2 40.8-10.1 63-12.2 0.5-0.5 0.5-1.6 0-2.1 1.1 1.1 4.8 0 6.4 0 2.1-2.1 2.1-7.9 6.4-12.2 2.1 0 2.1 7.9 0 7.9 12.2 2.1 16.4-4.2 26.5-4.2 2.1-4.2-6.4 0-4.2-4.2-4.2-2.1 0 4.2-4.2 2.1-2.1-4.2 4.2 0 2.1-4.2-1.6 0.5-3.2 1.1-4.2 1.6 0-5.8 4.2-7.9 7.9-9.5 2.1 7.9 10.1 4.2 18.5 4.2-1.6-2.6 0-3.7 1.1-3.2-1.1-2.1-2.1-4.8-5.3-4.8 0 2.1 0 2.1-2.1 2.1-2.1 4.2 4.2 0 2.1 4.2-2.1-2.1-6.4 0-6.4-2.1s2.1-2.1 2.1-4.2c-10.1 2.1-18.5 5.8-30.7 5.8 2.1 7.9-10.1 2.1-4.2 7.9-4.2 0-7.9-2.1-4.2-4.2-6.4 0-14.3 2.1-10.1 5.8 0-2.1 0-2.1 2.1-2.1-2.1 2.1 0 5.8-2.1 5.8-2.1-2.1-4.2-2.1-6.4-4.2 0-2.1 2.1-2.1 2.1-4.2-6.4-2.1-7.9 2.1-10.1 4.2-7.9-4.2-22.2 5.8-34.4 5.8-2.1 2.1 0 4.2-2.1 4.2-4.2 2.1-6.4-2.1-7.9-2.1 0 5.8-7.9 5.8-10.1 10.1-2.1-4.2 2.1-2.1 2.1-5.8-4.2 2.1-7.9 5.8-12.2 2.1-2.1 4.2-7.9 4.2-14.3 4.2-22.2 5.8-46.6 14.3-73.1 18-4.2 2.1 0 4.2-2.1 5.8 0-2.1-2.1-4.2-4.2-4.2-2.1 2.1 0 4.2-2.1 4.2 0-2.1-2.1-2.1-6.4-2.1-75.2 22.2-91.6 20.1-168.9 42.4 2.1 0 2.1 0 2.1 2.1-6.4 2.1-4.2-4.2-10.1-2.1-2.1 4.2-4.2 7.9-6.4 12.2-7.9-5.8 0-14.3-4.2-22.2-2.1 2.1-6.4 5.8-7.9 2.1 0-4.2 4.2-2.1 6.4-2.1v-7.9c-2.1 0-2.1 2.1-4.2 2.1 4.2-14.3-6.4-26.5-6.4-42.4-2.1-2.1-4.2 0-4.2-2.1s-2.1-4.2-2.1-2.1c2.1 7.9-6.4 7.9-6.4 14.3H54l12.2 42.4c2.1 2.1 6.4 0 6.4 2.1-2.1 2.1 0 4.2-2.1 4.2s-2.1-2.1-4.2-2.1c0 7.9 0 14.3 6.4 15.9-6.4 4.2 0 10.1 0 14.3 45-10.1 20.1-2.1 65.1-12.2l18.5-7.9c10.1-4.2 22.2-7.9 34.4-10.1 0-4.2-7.9-4.2-4.2-7.9 2 2 4.2 4.2 4.2 5.7z m281.2-84.2c2.1 2.1 5.8 2.1 7.9 4.2-3.7 2.1-6.9 4.8-10.1 7.9 2.2-7.8 2.2-7.8 2.2-12.1zM451.2 676c-0.5 1.1-0.5 1.6 0 2.1-1.1-1.5-2.6-2.1 0-2.1zM29.1 517.7c0-1.6-0.5-2.6-1.1-3.7-1.1 1.1-2.1 2.1-3.2 2.6 1.1 0.5 2.2 1.1 4.3 1.1z m484.1-125.6c0-0.5 0-0.5 0 0 0-0.5 0-0.5 0 0z m0 0c0.5 0.6 0.5 0 0 0zM2.6 521.4v4.2h1.6c-0.5-1.6-1-2.6-1.6-4.2z" fill="#8a8a8a" p-id="1059"></path><path d="M7.4 509.7c2.1 0.5 2.6 2.1 5.8 2.1v4.2c6.4 1.6 0-4.2 4.2-4.2v5.8c3.7 1.1 5.8 0 7.4-1.1-2.1-1.6-2.1-3.7-2.1-4.8 2.6 0 4.2 0.5 5.3 2.1 1.1-1.1 2.1-1.6 3.7-2.1 0 2.1 2.1 8.5 2.1 4.2 2.1-1.6 0-5.8 2.1-5.8 4.2 0 2.1 3.7 2.1 5.8 5.8-2.1 12.2-4.2 20.1-4.2 2.1-1.6 2.1-3.7 4.2-5.8 2.1 0 0 4.2 4.2 4.2 4.2-2.1 4.2-5.8 6.4-10.1 0.5 0.5 1.6 1.1 2.1 1.6-2.1 1.6-2.1 1.6-2.1 5.8 4.2-2.1 12.2-2.1 18.5-4.2 2.1-2.1-4.2-4.2 0-4.2 7.9 5.8 12.2-4.2 24.4-10.1 0.5 0 1.1-0.5 1.6-0.5-0.5-0.5-1.1-0.5-1.6-1.1v-1.6l0.5-0.5h4.2v2.1c-1.1 0.5-2.1 0.5-3.2 1.1 0.5 0 2.1 0.5 3.2 0.5v-0.9h1.1c-0.5-2.6-0.5-3.7 0.5-3.7 1.6-1.1-1.6-2.6-1.6-4.2-1.1 0.5-2.7 0.5-4.2 1.1l4.8-2.1s0.5 0 0.5-0.5c-14.3 5.3-33.9 5.8-45 13.2-2.1 0-2.1-2.1-4.2-2.1-2.1 2.1 0 4.2-2.1 4.2-4.2-5.8-12.2 0-14.3 4.2-2.1 2.1 4.2-2.1 4.2 2.1v4.2H56c2.1-5.8-4.2-3.7-2.1-7.9-8.5 3.7-16.4 0-16.4 7.9 0-2.1 0-6.4-4.2-4.2 0 3.7-4.2 3.7-6.4 5.8-6.4-5.8-10.6 2.1-18.5 0-1.5 1.6-0.5 3.2-1 3.7H5.3c0.5 0 0.5 0.5 1.1 0.5 0.5 0 0.5 0 1-0.5zM116 481.1v2.1c-1.1 0-2.6 0.5-4.8 1.6 1.1-1.6 2.1-3.7 4.8-3.7z m-3.7 5.3c-1.1 1.1-1.6 2.7-2.6 0.5 1-0.5 1.5-0.5 2.6-0.5z m-34.5 14.8c2.1 0 8.5-2.1 6.4 2.1-2.1 0.1-8.5 2.2-6.4-2.1z m-5.2-1c-5.3 0-7.4 0-9.5-4.2 3.1-1.6 6.3 1.5 9.5 4.2z m-17 7.4v3.7c-4.2 0-4.2-2.1-4.2-3.7h4.2zM45 511.3c-3.7 0-1.6-5.8-4.2-5.8 2.1 0 4.2 1.6 4.2 5.8zM5.3 509.7c-1.1-0.5-2.1-1.6-5.3-1.6 0 5.8 1.6 9.5 3.2 13.2-0.6-4.2-1.1-8.4 2.1-11.6zM53 697.2c-0.5 0.5-1.1 1.1-2.1 1.6 0 1.6 1.6 2.1 3.2 2.1l-1.1-3.7z m0 0c3.7-4.2 3.2-13.2 7.9-16.4-2.1-20.1-6.4-38.1-16.4-52.4v-4.2c1.1-0.5 2.1-1.1 2.1-3.2h-0.5v-8c-2.1 0-2.1 5.8-4.2 2.1 4.2-24.4-10.1-48.2-14.3-72.6-4.2-2.1 0 4.2-4.2 2.1 0-4.2 6.4-12.2 0-14.3v10.1c-2.1 0-2.1 2.1-4.2 2.1 0-4.2-2.1-4.2-4.2-4.2-2.1 4.2-2.1 7.9-6.4 4.2 2.1 4.2 2.1 5.8 2.1 12.2 2.1 2.1 6.4 0 6.4 2.1 0 4.2-6.4 0-4.2 4.2 7.9 12.2 6.4 34.4 18.5 42.4-4.2 5.8 2.1 22.2 6.4 26.5 0 2.1-2.1 2.1-2.1 4.2L53 697.2z" fill="#8a8a8a" p-id="1060"></path><path d="M363.2 511.7l-13.8 3.7-5.8-21.7-137.2 36.8 6.1 22.7-13.8 3.7-9.5-35.6 75.3-20.2c-3.4-4.6-6.6-8.8-9.9-12.6l14.3-6.6c3.3 4.4 6.6 9.5 10.2 15.3l74.9-20.1 9.2 34.6zM255.4 639.3l3.1 11.7-13.8 3.7-25.7-95.9 57.7-15.5-5.3-19.8 14.2-3.8 5.3 19.8 58.3-15.6 25.5 95.3-13.8 3.7-3-11.1-44.5 11.9 10.8 40.1-14.2 3.8-10.8-40.1-43.8 11.8z m-19-71.2l6.1 22.7 43.9-11.8-6.1-22.7-43.9 11.8z m15.5 58.1l43.9-11.8-6.1-22.7-43.9 11.8 6.1 22.7z m87.1-85.6l-44.5 11.9 6.1 22.7 44.5-11.9-6.1-22.7z m15.5 58.2l-6.1-22.7-44.4 11.8 6.1 22.7 44.4-11.8z m106.1-59.4c-5.6 4.5-11.4 8.8-17.1 12.8l14.8 55.3c3.1 11.5-0.7 18.6-11.4 21.5l-17.2 4.6-6.7-13.2c5.3-0.8 10.5-1.8 15.5-3.1 4.7-1.3 6.4-4.5 5.1-9.6l-12.6-47c-6.5 4.1-13.1 8-19.7 11.8l-7-12.7c7.8-4 15.6-8.2 23.1-12.7l-13-48.4-22.3 6-3.7-13.6 22.3-6-9.8-36.6 13.8-3.7 9.8 36.6 19.6-5.2 3.7 13.6-19.6 5.2 11.8 43.9c5.9-4.1 11.5-8.4 17.1-12.8l3.5 13.3z m40.1 54.7c8.8-5.1 16.5-10.6 23.4-16.4l6.1 12.6c-11.8 9.1-25.7 17.9-41.6 26.4l-7.1-12.3c4-2.5 5.4-6.1 4.2-10.4l-41.5-155 14-3.8 15.3 56.9 27.9-7.5 3.7 13.8-27.9 7.5 23.5 88.2z m59.3 3c-11.5 3.1-18.9-1.7-22.2-14l-42.7-159.3 14-3.8 16 59.7c10.8-7.1 21-15.8 30.1-25.9l11.4 9.4C553.9 475.6 541.4 486 529 494l22.1 82.4c1.4 5.3 4.7 7.4 9.9 6l9.7-2.6c4.5-1.2 7.3-3.6 8.5-6.9 1.6-4.2 0.3-15.3-3.6-33.3l14.2 0.7c4.4 22.1 5.2 35.9 2.3 41.8-2.5 4.9-7.5 8.6-15.4 10.7l-16.7 4.3z m110.3-221.7l9.5 35.6 71-19 24.9 92.9-14.2 3.8-3.3-12.5-56.7 15.2 18.1 67.4-14.6 3.9-18.1-67.4-56.5 15.1 3.3 12.5-14.2 3.8-24.9-92.9 70.8-19-9.5-35.6 14.4-3.8zM683 481.5l-14.1-52.8-56.5 15.1 14.1 52.8 56.5-15.1z m71.4-19.1l-14.1-52.8-56.7 15.2 14.1 52.8 56.7-15.2z" fill="#8a8a8a" p-id="1061"></path></svg>