<svg t="1730367188607" class="icon" viewBox="0 0 1024 1024" version="1.1" xmlns="http://www.w3.org/2000/svg" p-id="1473" width="200" height="200"><path d="M0 0m128 0l768 0q128 0 128 128l0 768q0 128-128 128l-768 0q-128 0-128-128l0-768q0-128 128-128Z" fill="#FFFFFF" p-id="1474"></path><path d="M660 272l102.264 1.808c69.8 1.236 125.736 58.172 125.736 127.98V640c0 70.692-57.308 128-128 128h-100V272zM220 272v496H140V272h80z m20 8l184 488H240V280z m356 0v488h-160l160-488z m-24-24l-108 316-116-316h224z" fill="#E16810" p-id="1475"></path></svg>